<?xml version="1.0" encoding="utf-8" standalone="no"?>
<!DOCTYPE svg PUBLIC "-//W3C//DTD SVG 1.1//EN"
  "http://www.w3.org/Graphics/SVG/1.1/DTD/svg11.dtd">
<svg xmlns:xlink="http://www.w3.org/1999/xlink" width="720pt" height="432pt" viewBox="0 0 720 432" xmlns="http://www.w3.org/2000/svg" version="1.1">
 <metadata>
  <rdf:RDF xmlns:dc="http://purl.org/dc/elements/1.1/" xmlns:cc="http://creativecommons.org/ns#" xmlns:rdf="http://www.w3.org/1999/02/22-rdf-syntax-ns#">
   <cc:Work>
    <dc:type rdf:resource="http://purl.org/dc/dcmitype/StillImage"/>
    <dc:date>2025-02-13T18:19:37.359452</dc:date>
    <dc:format>image/svg+xml</dc:format>
    <dc:creator>
     <cc:Agent>
      <dc:title>Matplotlib v3.9.2, https://matplotlib.org/</dc:title>
     </cc:Agent>
    </dc:creator>
   </cc:Work>
  </rdf:RDF>
 </metadata>
 <defs>
  <style type="text/css">*{stroke-linejoin: round; stroke-linecap: butt}</style>
 </defs>
 <g id="figure_1">
  <g id="patch_1">
   <path d="M 0 432 
L 720 432 
L 720 0 
L 0 0 
z
" style="fill: #ffffff"/>
  </g>
  <g id="axes_1">
   <g id="patch_2">
    <path d="M 90 384.48 
L 648 384.48 
L 648 51.84 
L 90 51.84 
z
" style="fill: #ffffff"/>
   </g>
   <g id="matplotlib.axis_1">
    <g id="xtick_1">
     <g id="line2d_1">
      <path d="M 115.363636 384.48 
L 115.363636 51.84 
" clip-path="url(#peee3cbf530)" style="fill: none; stroke-dasharray: 2.96,1.28; stroke-dashoffset: 0; stroke: #cccccc; stroke-opacity: 0.6; stroke-width: 0.8"/>
     </g>
     <g id="text_1">
      <!-- 0 -->
      <g style="fill: #262626" transform="translate(109.802699 405.795625) scale(0.2 -0.2)">
       <defs>
        <path id="ArialMT-30" d="M 266 2259 
Q 266 3072 433 3567 
Q 600 4063 929 4331 
Q 1259 4600 1759 4600 
Q 2128 4600 2406 4451 
Q 2684 4303 2865 4023 
Q 3047 3744 3150 3342 
Q 3253 2941 3253 2259 
Q 3253 1453 3087 958 
Q 2922 463 2592 192 
Q 2263 -78 1759 -78 
Q 1097 -78 719 397 
Q 266 969 266 2259 
z
M 844 2259 
Q 844 1131 1108 757 
Q 1372 384 1759 384 
Q 2147 384 2411 759 
Q 2675 1134 2675 2259 
Q 2675 3391 2411 3762 
Q 2147 4134 1753 4134 
Q 1366 4134 1134 3806 
Q 844 3388 844 2259 
z
" transform="scale(0.015625)"/>
       </defs>
       <use xlink:href="#ArialMT-30"/>
      </g>
     </g>
    </g>
    <g id="xtick_2">
     <g id="line2d_2">
      <path d="M 179.091366 384.48 
L 179.091366 51.84 
" clip-path="url(#peee3cbf530)" style="fill: none; stroke-dasharray: 2.96,1.28; stroke-dashoffset: 0; stroke: #cccccc; stroke-opacity: 0.6; stroke-width: 0.8"/>
     </g>
     <g id="text_2">
      <!-- 25 -->
      <g style="fill: #262626" transform="translate(167.969491 405.795625) scale(0.2 -0.2)">
       <defs>
        <path id="ArialMT-32" d="M 3222 541 
L 3222 0 
L 194 0 
Q 188 203 259 391 
Q 375 700 629 1000 
Q 884 1300 1366 1694 
Q 2113 2306 2375 2664 
Q 2638 3022 2638 3341 
Q 2638 3675 2398 3904 
Q 2159 4134 1775 4134 
Q 1369 4134 1125 3890 
Q 881 3647 878 3216 
L 300 3275 
Q 359 3922 746 4261 
Q 1134 4600 1788 4600 
Q 2447 4600 2831 4234 
Q 3216 3869 3216 3328 
Q 3216 3053 3103 2787 
Q 2991 2522 2730 2228 
Q 2469 1934 1863 1422 
Q 1356 997 1212 845 
Q 1069 694 975 541 
L 3222 541 
z
" transform="scale(0.015625)"/>
        <path id="ArialMT-35" d="M 266 1200 
L 856 1250 
Q 922 819 1161 601 
Q 1400 384 1738 384 
Q 2144 384 2425 690 
Q 2706 997 2706 1503 
Q 2706 1984 2436 2262 
Q 2166 2541 1728 2541 
Q 1456 2541 1237 2417 
Q 1019 2294 894 2097 
L 366 2166 
L 809 4519 
L 3088 4519 
L 3088 3981 
L 1259 3981 
L 1013 2750 
Q 1425 3038 1878 3038 
Q 2478 3038 2890 2622 
Q 3303 2206 3303 1553 
Q 3303 931 2941 478 
Q 2500 -78 1738 -78 
Q 1113 -78 717 272 
Q 322 622 266 1200 
z
" transform="scale(0.015625)"/>
       </defs>
       <use xlink:href="#ArialMT-32"/>
       <use xlink:href="#ArialMT-35" x="55.615234"/>
      </g>
     </g>
    </g>
    <g id="xtick_3">
     <g id="line2d_3">
      <path d="M 242.819095 384.48 
L 242.819095 51.84 
" clip-path="url(#peee3cbf530)" style="fill: none; stroke-dasharray: 2.96,1.28; stroke-dashoffset: 0; stroke: #cccccc; stroke-opacity: 0.6; stroke-width: 0.8"/>
     </g>
     <g id="text_3">
      <!-- 50 -->
      <g style="fill: #262626" transform="translate(231.69722 405.795625) scale(0.2 -0.2)">
       <use xlink:href="#ArialMT-35"/>
       <use xlink:href="#ArialMT-30" x="55.615234"/>
      </g>
     </g>
    </g>
    <g id="xtick_4">
     <g id="line2d_4">
      <path d="M 306.546825 384.48 
L 306.546825 51.84 
" clip-path="url(#peee3cbf530)" style="fill: none; stroke-dasharray: 2.96,1.28; stroke-dashoffset: 0; stroke: #cccccc; stroke-opacity: 0.6; stroke-width: 0.8"/>
     </g>
     <g id="text_4">
      <!-- 75 -->
      <g style="fill: #262626" transform="translate(295.42495 405.795625) scale(0.2 -0.2)">
       <defs>
        <path id="ArialMT-37" d="M 303 3981 
L 303 4522 
L 3269 4522 
L 3269 4084 
Q 2831 3619 2401 2847 
Q 1972 2075 1738 1259 
Q 1569 684 1522 0 
L 944 0 
Q 953 541 1156 1306 
Q 1359 2072 1739 2783 
Q 2119 3494 2547 3981 
L 303 3981 
z
" transform="scale(0.015625)"/>
       </defs>
       <use xlink:href="#ArialMT-37"/>
       <use xlink:href="#ArialMT-35" x="55.615234"/>
      </g>
     </g>
    </g>
    <g id="xtick_5">
     <g id="line2d_5">
      <path d="M 370.274555 384.48 
L 370.274555 51.84 
" clip-path="url(#peee3cbf530)" style="fill: none; stroke-dasharray: 2.96,1.28; stroke-dashoffset: 0; stroke: #cccccc; stroke-opacity: 0.6; stroke-width: 0.8"/>
     </g>
     <g id="text_5">
      <!-- 100 -->
      <g style="fill: #262626" transform="translate(353.591742 405.795625) scale(0.2 -0.2)">
       <defs>
        <path id="ArialMT-31" d="M 2384 0 
L 1822 0 
L 1822 3584 
Q 1619 3391 1289 3197 
Q 959 3003 697 2906 
L 697 3450 
Q 1169 3672 1522 3987 
Q 1875 4303 2022 4600 
L 2384 4600 
L 2384 0 
z
" transform="scale(0.015625)"/>
       </defs>
       <use xlink:href="#ArialMT-31"/>
       <use xlink:href="#ArialMT-30" x="55.615234"/>
       <use xlink:href="#ArialMT-30" x="111.230469"/>
      </g>
     </g>
    </g>
    <g id="xtick_6">
     <g id="line2d_6">
      <path d="M 434.002284 384.48 
L 434.002284 51.84 
" clip-path="url(#peee3cbf530)" style="fill: none; stroke-dasharray: 2.96,1.28; stroke-dashoffset: 0; stroke: #cccccc; stroke-opacity: 0.6; stroke-width: 0.8"/>
     </g>
     <g id="text_6">
      <!-- 125 -->
      <g style="fill: #262626" transform="translate(417.319472 405.795625) scale(0.2 -0.2)">
       <use xlink:href="#ArialMT-31"/>
       <use xlink:href="#ArialMT-32" x="55.615234"/>
       <use xlink:href="#ArialMT-35" x="111.230469"/>
      </g>
     </g>
    </g>
    <g id="xtick_7">
     <g id="line2d_7">
      <path d="M 497.730014 384.48 
L 497.730014 51.84 
" clip-path="url(#peee3cbf530)" style="fill: none; stroke-dasharray: 2.96,1.28; stroke-dashoffset: 0; stroke: #cccccc; stroke-opacity: 0.6; stroke-width: 0.8"/>
     </g>
     <g id="text_7">
      <!-- 150 -->
      <g style="fill: #262626" transform="translate(481.047201 405.795625) scale(0.2 -0.2)">
       <use xlink:href="#ArialMT-31"/>
       <use xlink:href="#ArialMT-35" x="55.615234"/>
       <use xlink:href="#ArialMT-30" x="111.230469"/>
      </g>
     </g>
    </g>
    <g id="xtick_8">
     <g id="line2d_8">
      <path d="M 561.457743 384.48 
L 561.457743 51.84 
" clip-path="url(#peee3cbf530)" style="fill: none; stroke-dasharray: 2.96,1.28; stroke-dashoffset: 0; stroke: #cccccc; stroke-opacity: 0.6; stroke-width: 0.8"/>
     </g>
     <g id="text_8">
      <!-- 175 -->
      <g style="fill: #262626" transform="translate(544.774931 405.795625) scale(0.2 -0.2)">
       <use xlink:href="#ArialMT-31"/>
       <use xlink:href="#ArialMT-37" x="55.615234"/>
       <use xlink:href="#ArialMT-35" x="111.230469"/>
      </g>
     </g>
    </g>
    <g id="xtick_9">
     <g id="line2d_9">
      <path d="M 625.185473 384.48 
L 625.185473 51.84 
" clip-path="url(#peee3cbf530)" style="fill: none; stroke-dasharray: 2.96,1.28; stroke-dashoffset: 0; stroke: #cccccc; stroke-opacity: 0.6; stroke-width: 0.8"/>
     </g>
     <g id="text_9">
      <!-- 200 -->
      <g style="fill: #262626" transform="translate(608.50266 405.795625) scale(0.2 -0.2)">
       <use xlink:href="#ArialMT-32"/>
       <use xlink:href="#ArialMT-30" x="55.615234"/>
       <use xlink:href="#ArialMT-30" x="111.230469"/>
      </g>
     </g>
    </g>
    <g id="text_10">
     <!-- Iterations -->
     <g style="fill: #262626" transform="translate(317.587891 431.665156) scale(0.25 -0.25)">
      <defs>
       <path id="ArialMT-49" d="M 597 0 
L 597 4581 
L 1203 4581 
L 1203 0 
L 597 0 
z
" transform="scale(0.015625)"/>
       <path id="ArialMT-74" d="M 1650 503 
L 1731 6 
Q 1494 -44 1306 -44 
Q 1000 -44 831 53 
Q 663 150 594 308 
Q 525 466 525 972 
L 525 2881 
L 113 2881 
L 113 3319 
L 525 3319 
L 525 4141 
L 1084 4478 
L 1084 3319 
L 1650 3319 
L 1650 2881 
L 1084 2881 
L 1084 941 
Q 1084 700 1114 631 
Q 1144 563 1211 522 
Q 1278 481 1403 481 
Q 1497 481 1650 503 
z
" transform="scale(0.015625)"/>
       <path id="ArialMT-65" d="M 2694 1069 
L 3275 997 
Q 3138 488 2766 206 
Q 2394 -75 1816 -75 
Q 1088 -75 661 373 
Q 234 822 234 1631 
Q 234 2469 665 2931 
Q 1097 3394 1784 3394 
Q 2450 3394 2872 2941 
Q 3294 2488 3294 1666 
Q 3294 1616 3291 1516 
L 816 1516 
Q 847 969 1125 678 
Q 1403 388 1819 388 
Q 2128 388 2347 550 
Q 2566 713 2694 1069 
z
M 847 1978 
L 2700 1978 
Q 2663 2397 2488 2606 
Q 2219 2931 1791 2931 
Q 1403 2931 1139 2672 
Q 875 2413 847 1978 
z
" transform="scale(0.015625)"/>
       <path id="ArialMT-72" d="M 416 0 
L 416 3319 
L 922 3319 
L 922 2816 
Q 1116 3169 1280 3281 
Q 1444 3394 1641 3394 
Q 1925 3394 2219 3213 
L 2025 2691 
Q 1819 2813 1613 2813 
Q 1428 2813 1281 2702 
Q 1134 2591 1072 2394 
Q 978 2094 978 1738 
L 978 0 
L 416 0 
z
" transform="scale(0.015625)"/>
       <path id="ArialMT-61" d="M 2588 409 
Q 2275 144 1986 34 
Q 1697 -75 1366 -75 
Q 819 -75 525 192 
Q 231 459 231 875 
Q 231 1119 342 1320 
Q 453 1522 633 1644 
Q 813 1766 1038 1828 
Q 1203 1872 1538 1913 
Q 2219 1994 2541 2106 
Q 2544 2222 2544 2253 
Q 2544 2597 2384 2738 
Q 2169 2928 1744 2928 
Q 1347 2928 1158 2789 
Q 969 2650 878 2297 
L 328 2372 
Q 403 2725 575 2942 
Q 747 3159 1072 3276 
Q 1397 3394 1825 3394 
Q 2250 3394 2515 3294 
Q 2781 3194 2906 3042 
Q 3031 2891 3081 2659 
Q 3109 2516 3109 2141 
L 3109 1391 
Q 3109 606 3145 398 
Q 3181 191 3288 0 
L 2700 0 
Q 2613 175 2588 409 
z
M 2541 1666 
Q 2234 1541 1622 1453 
Q 1275 1403 1131 1340 
Q 988 1278 909 1158 
Q 831 1038 831 891 
Q 831 666 1001 516 
Q 1172 366 1500 366 
Q 1825 366 2078 508 
Q 2331 650 2450 897 
Q 2541 1088 2541 1459 
L 2541 1666 
z
" transform="scale(0.015625)"/>
       <path id="ArialMT-69" d="M 425 3934 
L 425 4581 
L 988 4581 
L 988 3934 
L 425 3934 
z
M 425 0 
L 425 3319 
L 988 3319 
L 988 0 
L 425 0 
z
" transform="scale(0.015625)"/>
       <path id="ArialMT-6f" d="M 213 1659 
Q 213 2581 725 3025 
Q 1153 3394 1769 3394 
Q 2453 3394 2887 2945 
Q 3322 2497 3322 1706 
Q 3322 1066 3130 698 
Q 2938 331 2570 128 
Q 2203 -75 1769 -75 
Q 1072 -75 642 372 
Q 213 819 213 1659 
z
M 791 1659 
Q 791 1022 1069 705 
Q 1347 388 1769 388 
Q 2188 388 2466 706 
Q 2744 1025 2744 1678 
Q 2744 2294 2464 2611 
Q 2184 2928 1769 2928 
Q 1347 2928 1069 2612 
Q 791 2297 791 1659 
z
" transform="scale(0.015625)"/>
       <path id="ArialMT-6e" d="M 422 0 
L 422 3319 
L 928 3319 
L 928 2847 
Q 1294 3394 1984 3394 
Q 2284 3394 2536 3286 
Q 2788 3178 2913 3003 
Q 3038 2828 3088 2588 
Q 3119 2431 3119 2041 
L 3119 0 
L 2556 0 
L 2556 2019 
Q 2556 2363 2490 2533 
Q 2425 2703 2258 2804 
Q 2091 2906 1866 2906 
Q 1506 2906 1245 2678 
Q 984 2450 984 1813 
L 984 0 
L 422 0 
z
" transform="scale(0.015625)"/>
       <path id="ArialMT-73" d="M 197 991 
L 753 1078 
Q 800 744 1014 566 
Q 1228 388 1613 388 
Q 2000 388 2187 545 
Q 2375 703 2375 916 
Q 2375 1106 2209 1216 
Q 2094 1291 1634 1406 
Q 1016 1563 777 1677 
Q 538 1791 414 1992 
Q 291 2194 291 2438 
Q 291 2659 392 2848 
Q 494 3038 669 3163 
Q 800 3259 1026 3326 
Q 1253 3394 1513 3394 
Q 1903 3394 2198 3281 
Q 2494 3169 2634 2976 
Q 2775 2784 2828 2463 
L 2278 2388 
Q 2241 2644 2061 2787 
Q 1881 2931 1553 2931 
Q 1166 2931 1000 2803 
Q 834 2675 834 2503 
Q 834 2394 903 2306 
Q 972 2216 1119 2156 
Q 1203 2125 1616 2013 
Q 2213 1853 2448 1751 
Q 2684 1650 2818 1456 
Q 2953 1263 2953 975 
Q 2953 694 2789 445 
Q 2625 197 2315 61 
Q 2006 -75 1616 -75 
Q 969 -75 630 194 
Q 291 463 197 991 
z
" transform="scale(0.015625)"/>
      </defs>
      <use xlink:href="#ArialMT-49"/>
      <use xlink:href="#ArialMT-74" x="27.783203"/>
      <use xlink:href="#ArialMT-65" x="55.566406"/>
      <use xlink:href="#ArialMT-72" x="111.181641"/>
      <use xlink:href="#ArialMT-61" x="144.482422"/>
      <use xlink:href="#ArialMT-74" x="200.097656"/>
      <use xlink:href="#ArialMT-69" x="227.880859"/>
      <use xlink:href="#ArialMT-6f" x="250.097656"/>
      <use xlink:href="#ArialMT-6e" x="305.712891"/>
      <use xlink:href="#ArialMT-73" x="361.328125"/>
     </g>
    </g>
   </g>
   <g id="matplotlib.axis_2">
    <g id="ytick_1">
     <g id="line2d_10">
      <path d="M 90 384.48 
L 648 384.48 
" clip-path="url(#peee3cbf530)" style="fill: none; stroke-dasharray: 2.96,1.28; stroke-dashoffset: 0; stroke: #cccccc; stroke-opacity: 0.6; stroke-width: 0.8"/>
     </g>
     <g id="text_11">
      <!-- 0.0 -->
      <g style="fill: #262626" transform="translate(55.2 391.637812) scale(0.2 -0.2)">
       <defs>
        <path id="ArialMT-2e" d="M 581 0 
L 581 641 
L 1222 641 
L 1222 0 
L 581 0 
z
" transform="scale(0.015625)"/>
       </defs>
       <use xlink:href="#ArialMT-30"/>
       <use xlink:href="#ArialMT-2e" x="55.615234"/>
       <use xlink:href="#ArialMT-30" x="83.398438"/>
      </g>
     </g>
    </g>
    <g id="ytick_2">
     <g id="line2d_11">
      <path d="M 90 317.952 
L 648 317.952 
" clip-path="url(#peee3cbf530)" style="fill: none; stroke-dasharray: 2.96,1.28; stroke-dashoffset: 0; stroke: #cccccc; stroke-opacity: 0.6; stroke-width: 0.8"/>
     </g>
     <g id="text_12">
      <!-- 0.5 -->
      <g style="fill: #262626" transform="translate(55.2 325.109812) scale(0.2 -0.2)">
       <use xlink:href="#ArialMT-30"/>
       <use xlink:href="#ArialMT-2e" x="55.615234"/>
       <use xlink:href="#ArialMT-35" x="83.398438"/>
      </g>
     </g>
    </g>
    <g id="ytick_3">
     <g id="line2d_12">
      <path d="M 90 251.424 
L 648 251.424 
" clip-path="url(#peee3cbf530)" style="fill: none; stroke-dasharray: 2.96,1.28; stroke-dashoffset: 0; stroke: #cccccc; stroke-opacity: 0.6; stroke-width: 0.8"/>
     </g>
     <g id="text_13">
      <!-- 1.0 -->
      <g style="fill: #262626" transform="translate(55.2 258.581812) scale(0.2 -0.2)">
       <use xlink:href="#ArialMT-31"/>
       <use xlink:href="#ArialMT-2e" x="55.615234"/>
       <use xlink:href="#ArialMT-30" x="83.398438"/>
      </g>
     </g>
    </g>
    <g id="ytick_4">
     <g id="line2d_13">
      <path d="M 90 184.896 
L 648 184.896 
" clip-path="url(#peee3cbf530)" style="fill: none; stroke-dasharray: 2.96,1.28; stroke-dashoffset: 0; stroke: #cccccc; stroke-opacity: 0.6; stroke-width: 0.8"/>
     </g>
     <g id="text_14">
      <!-- 1.5 -->
      <g style="fill: #262626" transform="translate(55.2 192.053813) scale(0.2 -0.2)">
       <use xlink:href="#ArialMT-31"/>
       <use xlink:href="#ArialMT-2e" x="55.615234"/>
       <use xlink:href="#ArialMT-35" x="83.398438"/>
      </g>
     </g>
    </g>
    <g id="ytick_5">
     <g id="line2d_14">
      <path d="M 90 118.368 
L 648 118.368 
" clip-path="url(#peee3cbf530)" style="fill: none; stroke-dasharray: 2.96,1.28; stroke-dashoffset: 0; stroke: #cccccc; stroke-opacity: 0.6; stroke-width: 0.8"/>
     </g>
     <g id="text_15">
      <!-- 2.0 -->
      <g style="fill: #262626" transform="translate(55.2 125.525812) scale(0.2 -0.2)">
       <use xlink:href="#ArialMT-32"/>
       <use xlink:href="#ArialMT-2e" x="55.615234"/>
       <use xlink:href="#ArialMT-30" x="83.398438"/>
      </g>
     </g>
    </g>
    <g id="ytick_6">
     <g id="line2d_15">
      <path d="M 90 51.84 
L 648 51.84 
" clip-path="url(#peee3cbf530)" style="fill: none; stroke-dasharray: 2.96,1.28; stroke-dashoffset: 0; stroke: #cccccc; stroke-opacity: 0.6; stroke-width: 0.8"/>
     </g>
     <g id="text_16">
      <!-- 2.5 -->
      <g style="fill: #262626" transform="translate(55.2 58.997812) scale(0.2 -0.2)">
       <use xlink:href="#ArialMT-32"/>
       <use xlink:href="#ArialMT-2e" x="55.615234"/>
       <use xlink:href="#ArialMT-35" x="83.398438"/>
      </g>
     </g>
    </g>
    <g id="text_17">
     <!-- Normalized Gradient Score -->
     <g style="fill: #262626" transform="translate(46.23125 368.908047) rotate(-90) scale(0.25 -0.25)">
      <defs>
       <path id="ArialMT-4e" d="M 488 0 
L 488 4581 
L 1109 4581 
L 3516 984 
L 3516 4581 
L 4097 4581 
L 4097 0 
L 3475 0 
L 1069 3600 
L 1069 0 
L 488 0 
z
" transform="scale(0.015625)"/>
       <path id="ArialMT-6d" d="M 422 0 
L 422 3319 
L 925 3319 
L 925 2853 
Q 1081 3097 1340 3245 
Q 1600 3394 1931 3394 
Q 2300 3394 2536 3241 
Q 2772 3088 2869 2813 
Q 3263 3394 3894 3394 
Q 4388 3394 4653 3120 
Q 4919 2847 4919 2278 
L 4919 0 
L 4359 0 
L 4359 2091 
Q 4359 2428 4304 2576 
Q 4250 2725 4106 2815 
Q 3963 2906 3769 2906 
Q 3419 2906 3187 2673 
Q 2956 2441 2956 1928 
L 2956 0 
L 2394 0 
L 2394 2156 
Q 2394 2531 2256 2718 
Q 2119 2906 1806 2906 
Q 1569 2906 1367 2781 
Q 1166 2656 1075 2415 
Q 984 2175 984 1722 
L 984 0 
L 422 0 
z
" transform="scale(0.015625)"/>
       <path id="ArialMT-6c" d="M 409 0 
L 409 4581 
L 972 4581 
L 972 0 
L 409 0 
z
" transform="scale(0.015625)"/>
       <path id="ArialMT-7a" d="M 125 0 
L 125 456 
L 2238 2881 
Q 1878 2863 1603 2863 
L 250 2863 
L 250 3319 
L 2963 3319 
L 2963 2947 
L 1166 841 
L 819 456 
Q 1197 484 1528 484 
L 3063 484 
L 3063 0 
L 125 0 
z
" transform="scale(0.015625)"/>
       <path id="ArialMT-64" d="M 2575 0 
L 2575 419 
Q 2259 -75 1647 -75 
Q 1250 -75 917 144 
Q 584 363 401 755 
Q 219 1147 219 1656 
Q 219 2153 384 2558 
Q 550 2963 881 3178 
Q 1213 3394 1622 3394 
Q 1922 3394 2156 3267 
Q 2391 3141 2538 2938 
L 2538 4581 
L 3097 4581 
L 3097 0 
L 2575 0 
z
M 797 1656 
Q 797 1019 1065 703 
Q 1334 388 1700 388 
Q 2069 388 2326 689 
Q 2584 991 2584 1609 
Q 2584 2291 2321 2609 
Q 2059 2928 1675 2928 
Q 1300 2928 1048 2622 
Q 797 2316 797 1656 
z
" transform="scale(0.015625)"/>
       <path id="ArialMT-20" transform="scale(0.015625)"/>
       <path id="ArialMT-47" d="M 2638 1797 
L 2638 2334 
L 4578 2338 
L 4578 638 
Q 4131 281 3656 101 
Q 3181 -78 2681 -78 
Q 2006 -78 1454 211 
Q 903 500 622 1047 
Q 341 1594 341 2269 
Q 341 2938 620 3517 
Q 900 4097 1425 4378 
Q 1950 4659 2634 4659 
Q 3131 4659 3532 4498 
Q 3934 4338 4162 4050 
Q 4391 3763 4509 3300 
L 3963 3150 
Q 3859 3500 3706 3700 
Q 3553 3900 3268 4020 
Q 2984 4141 2638 4141 
Q 2222 4141 1919 4014 
Q 1616 3888 1430 3681 
Q 1244 3475 1141 3228 
Q 966 2803 966 2306 
Q 966 1694 1177 1281 
Q 1388 869 1791 669 
Q 2194 469 2647 469 
Q 3041 469 3416 620 
Q 3791 772 3984 944 
L 3984 1797 
L 2638 1797 
z
" transform="scale(0.015625)"/>
       <path id="ArialMT-53" d="M 288 1472 
L 859 1522 
Q 900 1178 1048 958 
Q 1197 738 1509 602 
Q 1822 466 2213 466 
Q 2559 466 2825 569 
Q 3091 672 3220 851 
Q 3350 1031 3350 1244 
Q 3350 1459 3225 1620 
Q 3100 1781 2813 1891 
Q 2628 1963 1997 2114 
Q 1366 2266 1113 2400 
Q 784 2572 623 2826 
Q 463 3081 463 3397 
Q 463 3744 659 4045 
Q 856 4347 1234 4503 
Q 1613 4659 2075 4659 
Q 2584 4659 2973 4495 
Q 3363 4331 3572 4012 
Q 3781 3694 3797 3291 
L 3216 3247 
Q 3169 3681 2898 3903 
Q 2628 4125 2100 4125 
Q 1550 4125 1298 3923 
Q 1047 3722 1047 3438 
Q 1047 3191 1225 3031 
Q 1400 2872 2139 2705 
Q 2878 2538 3153 2413 
Q 3553 2228 3743 1945 
Q 3934 1663 3934 1294 
Q 3934 928 3725 604 
Q 3516 281 3123 101 
Q 2731 -78 2241 -78 
Q 1619 -78 1198 103 
Q 778 284 539 648 
Q 300 1013 288 1472 
z
" transform="scale(0.015625)"/>
       <path id="ArialMT-63" d="M 2588 1216 
L 3141 1144 
Q 3050 572 2676 248 
Q 2303 -75 1759 -75 
Q 1078 -75 664 370 
Q 250 816 250 1647 
Q 250 2184 428 2587 
Q 606 2991 970 3192 
Q 1334 3394 1763 3394 
Q 2303 3394 2647 3120 
Q 2991 2847 3088 2344 
L 2541 2259 
Q 2463 2594 2264 2762 
Q 2066 2931 1784 2931 
Q 1359 2931 1093 2626 
Q 828 2322 828 1663 
Q 828 994 1084 691 
Q 1341 388 1753 388 
Q 2084 388 2306 591 
Q 2528 794 2588 1216 
z
" transform="scale(0.015625)"/>
      </defs>
      <use xlink:href="#ArialMT-4e"/>
      <use xlink:href="#ArialMT-6f" x="72.216797"/>
      <use xlink:href="#ArialMT-72" x="127.832031"/>
      <use xlink:href="#ArialMT-6d" x="161.132812"/>
      <use xlink:href="#ArialMT-61" x="244.433594"/>
      <use xlink:href="#ArialMT-6c" x="300.048828"/>
      <use xlink:href="#ArialMT-69" x="322.265625"/>
      <use xlink:href="#ArialMT-7a" x="344.482422"/>
      <use xlink:href="#ArialMT-65" x="394.482422"/>
      <use xlink:href="#ArialMT-64" x="450.097656"/>
      <use xlink:href="#ArialMT-20" x="505.712891"/>
      <use xlink:href="#ArialMT-47" x="533.496094"/>
      <use xlink:href="#ArialMT-72" x="611.279297"/>
      <use xlink:href="#ArialMT-61" x="644.580078"/>
      <use xlink:href="#ArialMT-64" x="700.195312"/>
      <use xlink:href="#ArialMT-69" x="755.810547"/>
      <use xlink:href="#ArialMT-65" x="778.027344"/>
      <use xlink:href="#ArialMT-6e" x="833.642578"/>
      <use xlink:href="#ArialMT-74" x="889.257812"/>
      <use xlink:href="#ArialMT-20" x="917.041016"/>
      <use xlink:href="#ArialMT-53" x="944.824219"/>
      <use xlink:href="#ArialMT-63" x="1011.523438"/>
      <use xlink:href="#ArialMT-6f" x="1061.523438"/>
      <use xlink:href="#ArialMT-72" x="1117.138672"/>
      <use xlink:href="#ArialMT-65" x="1150.439453"/>
     </g>
    </g>
   </g>
   <g id="PolyCollection_1">
    <defs>
     <path id="m91ce325f71" d="M 115.363636 -132.782721 
L 115.363636 -130.349819 
L 117.912746 -130.349819 
L 120.461855 -130.349819 
L 123.010964 -129.401364 
L 125.560073 -129.245556 
L 128.109182 -127.435211 
L 130.658291 -125.979298 
L 133.207401 -125.448921 
L 135.75651 -123.609557 
L 138.305619 -124.507112 
L 140.854728 -122.364182 
L 143.403837 -122.989522 
L 145.952947 -123.586835 
L 148.502056 -123.026163 
L 151.051165 -122.353293 
L 153.600274 -122.119614 
L 156.149383 -123.862929 
L 158.698492 -123.863658 
L 161.247602 -123.194985 
L 163.796711 -124.050436 
L 166.34582 -125.308507 
L 168.894929 -125.350231 
L 171.444038 -123.141119 
L 173.993148 -122.000105 
L 176.542257 -122.663553 
L 179.091366 -123.502024 
L 181.640475 -122.886375 
L 184.189584 -124.932748 
L 186.738693 -123.106707 
L 189.287803 -121.512657 
L 191.836912 -120.844039 
L 194.386021 -119.750356 
L 196.93513 -119.630554 
L 199.484239 -118.977861 
L 202.033349 -120.36008 
L 204.582458 -117.507871 
L 207.131567 -117.367449 
L 209.680676 -116.836097 
L 212.229785 -119.064393 
L 214.778894 -119.172696 
L 217.328004 -119.300111 
L 219.877113 -117.814538 
L 222.426222 -115.576732 
L 224.975331 -115.422931 
L 227.52444 -116.615511 
L 230.07355 -116.760858 
L 232.622659 -116.553056 
L 235.171768 -117.521362 
L 237.720877 -116.312104 
L 240.269986 -115.652709 
L 242.819095 -115.30673 
L 245.368205 -114.564094 
L 247.917314 -114.584587 
L 250.466423 -114.765154 
L 253.015532 -116.147842 
L 255.564641 -117.350375 
L 258.113751 -116.087346 
L 260.66286 -114.857928 
L 263.211969 -115.191837 
L 265.761078 -114.574467 
L 268.310187 -114.883188 
L 270.859296 -113.40294 
L 273.408406 -113.83655 
L 275.957515 -114.685442 
L 278.506624 -115.188046 
L 281.055733 -114.709996 
L 283.604842 -112.977582 
L 286.153952 -112.708678 
L 288.703061 -111.706468 
L 291.25217 -111.576015 
L 293.801279 -111.35278 
L 296.350388 -111.16634 
L 298.899497 -110.951742 
L 301.448607 -110.565316 
L 303.997716 -110.969412 
L 306.546825 -111.958983 
L 309.095934 -112.248916 
L 311.645043 -111.848849 
L 314.194153 -109.486031 
L 316.743262 -109.160081 
L 319.292371 -110.196286 
L 321.84148 -110.426424 
L 324.390589 -110.267607 
L 326.939698 -111.158727 
L 329.488808 -111.52372 
L 332.037917 -110.356047 
L 334.587026 -109.729672 
L 337.136135 -110.467898 
L 339.685244 -112.09379 
L 342.234354 -112.588146 
L 344.783463 -112.381114 
L 347.332572 -113.267142 
L 349.881681 -112.089845 
L 352.43079 -114.118679 
L 354.979899 -114.047072 
L 357.529009 -111.491501 
L 360.078118 -112.162407 
L 362.627227 -111.673908 
L 365.176336 -108.888009 
L 367.725445 -109.457009 
L 370.274555 -110.517533 
L 372.823664 -110.182403 
L 375.372773 -109.572583 
L 377.921882 -110.346609 
L 380.470991 -110.84106 
L 383.020101 -109.310845 
L 385.56921 -107.742268 
L 388.118319 -108.132703 
L 390.667428 -108.357013 
L 393.216537 -109.734125 
L 395.765646 -109.923381 
L 398.314756 -110.419707 
L 400.863865 -109.02573 
L 403.412974 -109.855771 
L 405.962083 -109.724771 
L 408.511192 -109.607074 
L 411.060302 -108.672407 
L 413.609411 -107.618346 
L 416.15852 -108.655649 
L 418.707629 -108.882175 
L 421.256738 -108.053419 
L 423.805847 -107.771707 
L 426.354957 -107.812126 
L 428.904066 -109.124242 
L 431.453175 -108.586949 
L 434.002284 -108.306442 
L 436.551393 -108.777815 
L 439.100503 -110.745633 
L 441.649612 -110.346141 
L 444.198721 -110.223242 
L 446.74783 -107.989779 
L 449.296939 -107.525275 
L 451.846048 -106.918386 
L 454.395158 -107.28136 
L 456.944267 -108.312204 
L 459.493376 -108.987647 
L 462.042485 -109.570577 
L 464.591594 -111.608595 
L 467.140704 -110.985444 
L 469.689813 -108.418591 
L 472.238922 -107.641881 
L 474.788031 -107.741856 
L 477.33714 -107.882678 
L 479.886249 -108.804085 
L 482.435359 -108.046702 
L 484.984468 -106.985702 
L 487.533577 -109.677579 
L 490.082686 -106.5855 
L 492.631795 -107.284541 
L 495.180905 -107.358352 
L 497.730014 -108.587726 
L 500.279123 -106.561747 
L 502.828232 -106.703311 
L 505.377341 -106.947924 
L 507.92645 -105.262908 
L 510.47556 -106.544855 
L 513.024669 -106.832488 
L 515.573778 -107.182749 
L 518.122887 -107.137104 
L 520.671996 -107.285766 
L 523.221106 -107.795951 
L 525.770215 -108.221151 
L 528.319324 -109.407072 
L 530.868433 -108.922975 
L 533.417542 -107.082437 
L 535.966651 -107.586706 
L 538.515761 -107.087719 
L 541.06487 -107.254848 
L 543.613979 -105.79089 
L 546.163088 -107.131065 
L 548.712197 -107.288895 
L 551.261307 -108.360185 
L 553.810416 -108.701255 
L 556.359525 -107.09904 
L 558.908634 -107.053649 
L 561.457743 -107.403839 
L 564.006852 -105.536971 
L 566.555962 -106.214444 
L 569.105071 -106.384717 
L 571.65418 -105.728455 
L 574.203289 -105.109785 
L 576.752398 -104.85221 
L 579.301508 -105.865106 
L 581.850617 -105.60987 
L 584.399726 -105.067002 
L 586.948835 -105.579726 
L 589.497944 -106.103175 
L 592.047053 -106.186884 
L 594.596163 -105.988251 
L 597.145272 -106.041395 
L 599.694381 -104.659615 
L 602.24349 -105.477629 
L 604.792599 -105.083443 
L 607.341709 -106.242816 
L 609.890818 -107.92456 
L 612.439927 -105.892879 
L 614.989036 -107.181897 
L 617.538145 -105.89767 
L 620.087254 -105.448737 
L 622.636364 -106.015457 
L 622.636364 -108.247505 
L 622.636364 -108.247505 
L 620.087254 -107.222728 
L 617.538145 -107.779305 
L 614.989036 -108.410292 
L 612.439927 -107.815715 
L 609.890818 -110.356249 
L 607.341709 -110.485326 
L 604.792599 -107.682692 
L 602.24349 -109.696093 
L 599.694381 -108.71741 
L 597.145272 -107.954166 
L 594.596163 -108.829317 
L 592.047053 -110.599723 
L 589.497944 -109.151924 
L 586.948835 -110.52387 
L 584.399726 -109.96142 
L 581.850617 -110.515566 
L 579.301508 -110.089677 
L 576.752398 -110.287339 
L 574.203289 -110.774604 
L 571.65418 -109.589163 
L 569.105071 -111.084737 
L 566.555962 -111.562937 
L 564.006852 -110.538391 
L 561.457743 -112.095531 
L 558.908634 -112.564857 
L 556.359525 -111.841569 
L 553.810416 -111.634588 
L 551.261307 -111.652987 
L 548.712197 -113.194714 
L 546.163088 -113.374251 
L 543.613979 -112.298218 
L 541.06487 -111.737192 
L 538.515761 -113.40022 
L 535.966651 -113.284946 
L 533.417542 -110.65069 
L 530.868433 -110.319216 
L 528.319324 -111.116031 
L 525.770215 -111.195422 
L 523.221106 -108.411505 
L 520.671996 -109.493768 
L 518.122887 -110.313697 
L 515.573778 -110.065206 
L 513.024669 -108.926072 
L 510.47556 -108.71398 
L 507.92645 -110.3174 
L 505.377341 -109.391366 
L 502.828232 -110.528053 
L 500.279123 -109.81446 
L 497.730014 -112.380563 
L 495.180905 -112.17493 
L 492.631795 -112.140947 
L 490.082686 -112.080324 
L 487.533577 -113.902483 
L 484.984468 -112.876715 
L 482.435359 -111.89683 
L 479.886249 -112.938245 
L 477.33714 -112.768468 
L 474.788031 -109.516957 
L 472.238922 -108.940312 
L 469.689813 -111.236801 
L 467.140704 -112.641639 
L 464.591594 -112.933023 
L 462.042485 -111.270939 
L 459.493376 -111.650715 
L 456.944267 -110.362304 
L 454.395158 -111.021965 
L 451.846048 -112.486974 
L 449.296939 -111.271248 
L 446.74783 -113.161417 
L 444.198721 -113.095945 
L 441.649612 -112.681289 
L 439.100503 -112.986897 
L 436.551393 -113.592457 
L 434.002284 -112.477679 
L 431.453175 -111.484427 
L 428.904066 -112.385297 
L 426.354957 -112.760355 
L 423.805847 -110.836191 
L 421.256738 -112.140185 
L 418.707629 -113.200956 
L 416.15852 -112.69993 
L 413.609411 -112.999332 
L 411.060302 -113.079877 
L 408.511192 -112.009617 
L 405.962083 -113.832958 
L 403.412974 -112.321728 
L 400.863865 -112.459795 
L 398.314756 -113.526152 
L 395.765646 -113.084223 
L 393.216537 -112.391499 
L 390.667428 -112.697277 
L 388.118319 -113.518646 
L 385.56921 -113.716998 
L 383.020101 -114.573254 
L 380.470991 -115.053406 
L 377.921882 -114.565371 
L 375.372773 -113.942358 
L 372.823664 -113.307319 
L 370.274555 -114.174305 
L 367.725445 -115.056959 
L 365.176336 -115.068577 
L 362.627227 -115.961913 
L 360.078118 -114.93864 
L 357.529009 -114.912548 
L 354.979899 -114.927513 
L 352.43079 -116.632142 
L 349.881681 -115.932681 
L 347.332572 -115.135362 
L 344.783463 -114.877375 
L 342.234354 -115.679174 
L 339.685244 -116.45891 
L 337.136135 -116.354636 
L 334.587026 -115.996008 
L 332.037917 -116.168747 
L 329.488808 -116.176123 
L 326.939698 -115.726687 
L 324.390589 -114.774743 
L 321.84148 -113.55203 
L 319.292371 -114.645757 
L 316.743262 -113.674886 
L 314.194153 -115.683052 
L 311.645043 -116.000481 
L 309.095934 -114.564205 
L 306.546825 -113.475455 
L 303.997716 -114.139894 
L 301.448607 -114.189215 
L 298.899497 -115.264689 
L 296.350388 -114.108242 
L 293.801279 -112.68686 
L 291.25217 -111.877059 
L 288.703061 -114.527636 
L 286.153952 -114.748444 
L 283.604842 -114.731726 
L 281.055733 -116.328045 
L 278.506624 -116.602021 
L 275.957515 -116.951021 
L 273.408406 -117.241017 
L 270.859296 -117.274104 
L 268.310187 -119.348473 
L 265.761078 -121.011798 
L 263.211969 -119.923627 
L 260.66286 -119.796283 
L 258.113751 -118.573543 
L 255.564641 -119.383059 
L 253.015532 -118.810831 
L 250.466423 -117.741821 
L 247.917314 -119.17651 
L 245.368205 -118.652589 
L 242.819095 -119.638762 
L 240.269986 -118.608771 
L 237.720877 -120.252785 
L 235.171768 -120.402224 
L 232.622659 -119.22653 
L 230.07355 -119.182197 
L 227.52444 -119.504574 
L 224.975331 -121.927372 
L 222.426222 -120.673068 
L 219.877113 -122.760046 
L 217.328004 -121.819585 
L 214.778894 -121.400683 
L 212.229785 -121.867741 
L 209.680676 -120.388473 
L 207.131567 -123.067077 
L 204.582458 -122.684482 
L 202.033349 -124.130869 
L 199.484239 -123.871486 
L 196.93513 -121.160413 
L 194.386021 -120.718559 
L 191.836912 -123.152555 
L 189.287803 -122.522702 
L 186.738693 -125.665233 
L 184.189584 -129.107847 
L 181.640475 -126.245558 
L 179.091366 -126.797602 
L 176.542257 -126.40238 
L 173.993148 -127.552951 
L 171.444038 -126.687436 
L 168.894929 -129.67733 
L 166.34582 -131.00114 
L 163.796711 -129.956342 
L 161.247602 -128.570657 
L 158.698492 -126.167051 
L 156.149383 -127.720528 
L 153.600274 -125.566431 
L 151.051165 -127.075995 
L 148.502056 -127.566425 
L 145.952947 -130.060108 
L 143.403837 -130.249209 
L 140.854728 -130.107138 
L 138.305619 -131.196419 
L 135.75651 -131.55638 
L 133.207401 -129.34224 
L 130.658291 -130.362928 
L 128.109182 -132.384399 
L 125.560073 -131.693717 
L 123.010964 -131.876077 
L 120.461855 -132.782721 
L 117.912746 -132.782721 
L 115.363636 -132.782721 
z
" style="stroke: #4878d0; stroke-opacity: 0.2"/>
    </defs>
    <g clip-path="url(#peee3cbf530)">
     <use xlink:href="#m91ce325f71" x="0" y="432" style="fill: #4878d0; fill-opacity: 0.2; stroke: #4878d0; stroke-opacity: 0.2"/>
    </g>
   </g>
   <g id="PolyCollection_2">
    <defs>
     <path id="m1152fddb23" d="M 115.363636 -86.84322 
L 115.363636 -80.835705 
L 117.912746 -80.835709 
L 120.461855 -80.839737 
L 123.010964 -80.833405 
L 125.560073 -80.773821 
L 128.109182 -80.788707 
L 130.658291 -80.735266 
L 133.207401 -80.733844 
L 135.75651 -80.737506 
L 138.305619 -80.779216 
L 140.854728 -80.65132 
L 143.403837 -80.738045 
L 145.952947 -80.731379 
L 148.502056 -80.765712 
L 151.051165 -80.645059 
L 153.600274 -80.626596 
L 156.149383 -80.6287 
L 158.698492 -80.625383 
L 161.247602 -80.569201 
L 163.796711 -80.588834 
L 166.34582 -80.523015 
L 168.894929 -80.535498 
L 171.444038 -80.452253 
L 173.993148 -80.465128 
L 176.542257 -80.485304 
L 179.091366 -80.544055 
L 181.640475 -80.548221 
L 184.189584 -80.550176 
L 186.738693 -80.59568 
L 189.287803 -80.604979 
L 191.836912 -80.607301 
L 194.386021 -80.562682 
L 196.93513 -80.519882 
L 199.484239 -80.484221 
L 202.033349 -80.554428 
L 204.582458 -80.608036 
L 207.131567 -80.610211 
L 209.680676 -80.655351 
L 212.229785 -80.59476 
L 214.778894 -80.685702 
L 217.328004 -80.74053 
L 219.877113 -80.663984 
L 222.426222 -80.690542 
L 224.975331 -80.703352 
L 227.52444 -80.736057 
L 230.07355 -80.688196 
L 232.622659 -80.734643 
L 235.171768 -80.675349 
L 237.720877 -80.779487 
L 240.269986 -80.722919 
L 242.819095 -80.757137 
L 245.368205 -80.776938 
L 247.917314 -80.700662 
L 250.466423 -80.724827 
L 253.015532 -80.768593 
L 255.564641 -80.733414 
L 258.113751 -80.714808 
L 260.66286 -80.689095 
L 263.211969 -80.622756 
L 265.761078 -80.58909 
L 268.310187 -80.610552 
L 270.859296 -80.538835 
L 273.408406 -80.657717 
L 275.957515 -80.594403 
L 278.506624 -80.641936 
L 281.055733 -80.602251 
L 283.604842 -80.490748 
L 286.153952 -80.444877 
L 288.703061 -80.448097 
L 291.25217 -80.51895 
L 293.801279 -80.534649 
L 296.350388 -80.43584 
L 298.899497 -80.408477 
L 301.448607 -80.488445 
L 303.997716 -80.606837 
L 306.546825 -80.588053 
L 309.095934 -80.682901 
L 311.645043 -80.670328 
L 314.194153 -80.628635 
L 316.743262 -80.612601 
L 319.292371 -80.63832 
L 321.84148 -80.604626 
L 324.390589 -80.559564 
L 326.939698 -80.605376 
L 329.488808 -80.601565 
L 332.037917 -80.555519 
L 334.587026 -80.509632 
L 337.136135 -80.591505 
L 339.685244 -80.723613 
L 342.234354 -80.681398 
L 344.783463 -80.684683 
L 347.332572 -80.637915 
L 349.881681 -80.533323 
L 352.43079 -80.59618 
L 354.979899 -80.521779 
L 357.529009 -80.578254 
L 360.078118 -80.630149 
L 362.627227 -80.663558 
L 365.176336 -80.647585 
L 367.725445 -80.5992 
L 370.274555 -80.687062 
L 372.823664 -80.669597 
L 375.372773 -80.61082 
L 377.921882 -80.653309 
L 380.470991 -80.663647 
L 383.020101 -80.748546 
L 385.56921 -80.734389 
L 388.118319 -80.684463 
L 390.667428 -80.653821 
L 393.216537 -80.695566 
L 395.765646 -80.69097 
L 398.314756 -80.701377 
L 400.863865 -80.719156 
L 403.412974 -80.683069 
L 405.962083 -80.749906 
L 408.511192 -80.73249 
L 411.060302 -80.63163 
L 413.609411 -80.618063 
L 416.15852 -80.667531 
L 418.707629 -80.634533 
L 421.256738 -80.56318 
L 423.805847 -80.544444 
L 426.354957 -80.602574 
L 428.904066 -80.496873 
L 431.453175 -80.584385 
L 434.002284 -80.634618 
L 436.551393 -80.574688 
L 439.100503 -80.631712 
L 441.649612 -80.537127 
L 444.198721 -80.65819 
L 446.74783 -80.642616 
L 449.296939 -80.685914 
L 451.846048 -80.595783 
L 454.395158 -80.625133 
L 456.944267 -80.614978 
L 459.493376 -80.629919 
L 462.042485 -80.506043 
L 464.591594 -80.623359 
L 467.140704 -80.653329 
L 469.689813 -80.662521 
L 472.238922 -80.659787 
L 474.788031 -80.574343 
L 477.33714 -80.611992 
L 479.886249 -80.657643 
L 482.435359 -80.567542 
L 484.984468 -80.586919 
L 487.533577 -80.670874 
L 490.082686 -80.727351 
L 492.631795 -80.652173 
L 495.180905 -80.624965 
L 497.730014 -80.701968 
L 500.279123 -80.693905 
L 502.828232 -80.687568 
L 505.377341 -80.682962 
L 507.92645 -80.568347 
L 510.47556 -80.538462 
L 513.024669 -80.53712 
L 515.573778 -80.632223 
L 518.122887 -80.666661 
L 520.671996 -80.664016 
L 523.221106 -80.67086 
L 525.770215 -80.823095 
L 528.319324 -80.749444 
L 530.868433 -80.747975 
L 533.417542 -80.733094 
L 535.966651 -80.667168 
L 538.515761 -80.609638 
L 541.06487 -80.769982 
L 543.613979 -80.824288 
L 546.163088 -80.766517 
L 548.712197 -80.75349 
L 551.261307 -80.683478 
L 553.810416 -80.625982 
L 556.359525 -80.677811 
L 558.908634 -80.73222 
L 561.457743 -80.566501 
L 564.006852 -80.672971 
L 566.555962 -80.659917 
L 569.105071 -80.751908 
L 571.65418 -80.679157 
L 574.203289 -80.64797 
L 576.752398 -80.645719 
L 579.301508 -80.737895 
L 581.850617 -80.707129 
L 584.399726 -80.653918 
L 586.948835 -80.729764 
L 589.497944 -80.649911 
L 592.047053 -80.671982 
L 594.596163 -80.696318 
L 597.145272 -80.696875 
L 599.694381 -80.738747 
L 602.24349 -80.642706 
L 604.792599 -80.556631 
L 607.341709 -80.523455 
L 609.890818 -80.518125 
L 612.439927 -80.695233 
L 614.989036 -80.727856 
L 617.538145 -80.641526 
L 620.087254 -80.697813 
L 622.636364 -80.641909 
L 622.636364 -86.456271 
L 622.636364 -86.456271 
L 620.087254 -86.55826 
L 617.538145 -86.343503 
L 614.989036 -86.37805 
L 612.439927 -86.42448 
L 609.890818 -86.402928 
L 607.341709 -86.484909 
L 604.792599 -86.361106 
L 602.24349 -86.500393 
L 599.694381 -86.460058 
L 597.145272 -86.454078 
L 594.596163 -86.507301 
L 592.047053 -86.529432 
L 589.497944 -86.38782 
L 586.948835 -86.459764 
L 584.399726 -86.344622 
L 581.850617 -86.393868 
L 579.301508 -86.475194 
L 576.752398 -86.375881 
L 574.203289 -86.280656 
L 571.65418 -86.214644 
L 569.105071 -86.314707 
L 566.555962 -86.206147 
L 564.006852 -86.292691 
L 561.457743 -86.342032 
L 558.908634 -86.339391 
L 556.359525 -86.288543 
L 553.810416 -86.30429 
L 551.261307 -86.349146 
L 548.712197 -86.418683 
L 546.163088 -86.375496 
L 543.613979 -86.443173 
L 541.06487 -86.393483 
L 538.515761 -86.417775 
L 535.966651 -86.406458 
L 533.417542 -86.563031 
L 530.868433 -86.536562 
L 528.319324 -86.511667 
L 525.770215 -86.547451 
L 523.221106 -86.491804 
L 520.671996 -86.499236 
L 518.122887 -86.619636 
L 515.573778 -86.538084 
L 513.024669 -86.495932 
L 510.47556 -86.425892 
L 507.92645 -86.403844 
L 505.377341 -86.532648 
L 502.828232 -86.550088 
L 500.279123 -86.505929 
L 497.730014 -86.457476 
L 495.180905 -86.45794 
L 492.631795 -86.408409 
L 490.082686 -86.454815 
L 487.533577 -86.638991 
L 484.984468 -86.689082 
L 482.435359 -86.597882 
L 479.886249 -86.648774 
L 477.33714 -86.720028 
L 474.788031 -86.761831 
L 472.238922 -86.682599 
L 469.689813 -86.589055 
L 467.140704 -86.526624 
L 464.591594 -86.621817 
L 462.042485 -86.582271 
L 459.493376 -86.637381 
L 456.944267 -86.566195 
L 454.395158 -86.577361 
L 451.846048 -86.553843 
L 449.296939 -86.514582 
L 446.74783 -86.662316 
L 444.198721 -86.601864 
L 441.649612 -86.68727 
L 439.100503 -86.807385 
L 436.551393 -86.788784 
L 434.002284 -86.785813 
L 431.453175 -86.698734 
L 428.904066 -86.675949 
L 426.354957 -86.668997 
L 423.805847 -86.667312 
L 421.256738 -86.668054 
L 418.707629 -86.715321 
L 416.15852 -86.594881 
L 413.609411 -86.526303 
L 411.060302 -86.541978 
L 408.511192 -86.502828 
L 405.962083 -86.582842 
L 403.412974 -86.490444 
L 400.863865 -86.46961 
L 398.314756 -86.420285 
L 395.765646 -86.543608 
L 393.216537 -86.45089 
L 390.667428 -86.27763 
L 388.118319 -86.465205 
L 385.56921 -86.531113 
L 383.020101 -86.490508 
L 380.470991 -86.380484 
L 377.921882 -86.428144 
L 375.372773 -86.647132 
L 372.823664 -86.630303 
L 370.274555 -86.60596 
L 367.725445 -86.591629 
L 365.176336 -86.560501 
L 362.627227 -86.570922 
L 360.078118 -86.521521 
L 357.529009 -86.64858 
L 354.979899 -86.667023 
L 352.43079 -86.72418 
L 349.881681 -86.679978 
L 347.332572 -86.641553 
L 344.783463 -86.762997 
L 342.234354 -86.67217 
L 339.685244 -86.672174 
L 337.136135 -86.594008 
L 334.587026 -86.663026 
L 332.037917 -86.744752 
L 329.488808 -86.78987 
L 326.939698 -86.642076 
L 324.390589 -86.761692 
L 321.84148 -86.780329 
L 319.292371 -86.730036 
L 316.743262 -86.788264 
L 314.194153 -86.812036 
L 311.645043 -86.872378 
L 309.095934 -86.837867 
L 306.546825 -86.861286 
L 303.997716 -86.834714 
L 301.448607 -86.812865 
L 298.899497 -86.594571 
L 296.350388 -86.67713 
L 293.801279 -86.752036 
L 291.25217 -86.658101 
L 288.703061 -86.648385 
L 286.153952 -86.65124 
L 283.604842 -86.642025 
L 281.055733 -86.621108 
L 278.506624 -86.750982 
L 275.957515 -86.798507 
L 273.408406 -86.75664 
L 270.859296 -86.672959 
L 268.310187 -86.602625 
L 265.761078 -86.605282 
L 263.211969 -86.667681 
L 260.66286 -86.732753 
L 258.113751 -86.719952 
L 255.564641 -86.588897 
L 253.015532 -86.603553 
L 250.466423 -86.763461 
L 247.917314 -86.732574 
L 245.368205 -86.683328 
L 242.819095 -86.574506 
L 240.269986 -86.450227 
L 237.720877 -86.539667 
L 235.171768 -86.426193 
L 232.622659 -86.490159 
L 230.07355 -86.463531 
L 227.52444 -86.590082 
L 224.975331 -86.691104 
L 222.426222 -86.616301 
L 219.877113 -86.693174 
L 217.328004 -86.726856 
L 214.778894 -86.790758 
L 212.229785 -86.747361 
L 209.680676 -86.74173 
L 207.131567 -86.695415 
L 204.582458 -86.631318 
L 202.033349 -86.725698 
L 199.484239 -86.545 
L 196.93513 -86.481764 
L 194.386021 -86.537728 
L 191.836912 -86.543077 
L 189.287803 -86.484326 
L 186.738693 -86.600833 
L 184.189584 -86.661895 
L 181.640475 -86.593318 
L 179.091366 -86.560564 
L 176.542257 -86.55487 
L 173.993148 -86.56955 
L 171.444038 -86.611809 
L 168.894929 -86.575736 
L 166.34582 -86.570478 
L 163.796711 -86.599445 
L 161.247602 -86.560457 
L 158.698492 -86.357152 
L 156.149383 -86.439469 
L 153.600274 -86.433303 
L 151.051165 -86.431737 
L 148.502056 -86.440905 
L 145.952947 -86.556551 
L 143.403837 -86.704408 
L 140.854728 -86.614922 
L 138.305619 -86.671436 
L 135.75651 -86.678102 
L 133.207401 -86.651958 
L 130.658291 -86.532188 
L 128.109182 -86.617892 
L 125.560073 -86.611349 
L 123.010964 -86.715146 
L 120.461855 -86.892181 
L 117.912746 -86.843232 
L 115.363636 -86.84322 
z
" style="stroke: #d65f5f; stroke-opacity: 0.2"/>
    </defs>
    <g clip-path="url(#peee3cbf530)">
     <use xlink:href="#m1152fddb23" x="0" y="432" style="fill: #d65f5f; fill-opacity: 0.2; stroke: #d65f5f; stroke-opacity: 0.2"/>
    </g>
   </g>
   <g id="PolyCollection_3">
    <defs>
     <path id="md6370dea4a" d="M 115.363636 -327.086971 
L 115.363636 -322.77651 
L 117.912746 -322.77651 
L 120.461855 -322.77651 
L 123.010964 -320.52408 
L 125.560073 -318.741278 
L 128.109182 -307.165183 
L 130.658291 -283.582208 
L 133.207401 -267.534531 
L 135.75651 -252.362361 
L 138.305619 -249.032189 
L 140.854728 -242.124453 
L 143.403837 -240.469907 
L 145.952947 -237.460471 
L 148.502056 -233.41983 
L 151.051165 -230.363222 
L 153.600274 -229.486048 
L 156.149383 -231.713005 
L 158.698492 -228.394697 
L 161.247602 -227.39079 
L 163.796711 -227.446559 
L 166.34582 -233.956377 
L 168.894929 -227.329137 
L 171.444038 -224.50547 
L 173.993148 -223.239325 
L 176.542257 -221.442962 
L 179.091366 -222.057516 
L 181.640475 -220.132626 
L 184.189584 -223.663145 
L 186.738693 -219.402013 
L 189.287803 -213.180463 
L 191.836912 -213.531145 
L 194.386021 -209.938322 
L 196.93513 -212.353919 
L 199.484239 -214.693952 
L 202.033349 -212.616237 
L 204.582458 -212.80602 
L 207.131567 -214.339764 
L 209.680676 -209.260004 
L 212.229785 -211.760334 
L 214.778894 -210.65182 
L 217.328004 -209.403995 
L 219.877113 -202.369843 
L 222.426222 -201.877486 
L 224.975331 -202.614967 
L 227.52444 -201.370758 
L 230.07355 -201.381592 
L 232.622659 -202.572775 
L 235.171768 -202.192004 
L 237.720877 -202.218937 
L 240.269986 -200.538775 
L 242.819095 -201.099273 
L 245.368205 -203.37854 
L 247.917314 -203.038295 
L 250.466423 -203.143425 
L 253.015532 -203.968129 
L 255.564641 -203.153196 
L 258.113751 -200.621556 
L 260.66286 -202.724998 
L 263.211969 -203.052317 
L 265.761078 -202.686265 
L 268.310187 -202.034293 
L 270.859296 -198.626432 
L 273.408406 -200.940896 
L 275.957515 -201.455062 
L 278.506624 -202.402423 
L 281.055733 -201.871681 
L 283.604842 -196.579091 
L 286.153952 -196.806482 
L 288.703061 -193.891041 
L 291.25217 -194.016283 
L 293.801279 -193.356984 
L 296.350388 -195.929007 
L 298.899497 -195.628987 
L 301.448607 -197.268781 
L 303.997716 -197.037616 
L 306.546825 -196.973614 
L 309.095934 -196.044733 
L 311.645043 -196.712122 
L 314.194153 -196.202444 
L 316.743262 -195.606796 
L 319.292371 -198.278573 
L 321.84148 -197.171455 
L 324.390589 -194.941501 
L 326.939698 -196.888026 
L 329.488808 -195.909482 
L 332.037917 -193.411706 
L 334.587026 -193.286146 
L 337.136135 -195.64534 
L 339.685244 -194.79042 
L 342.234354 -193.261846 
L 344.783463 -195.563574 
L 347.332572 -195.735703 
L 349.881681 -194.814212 
L 352.43079 -192.166403 
L 354.979899 -192.697985 
L 357.529009 -196.013755 
L 360.078118 -196.33457 
L 362.627227 -197.852897 
L 365.176336 -193.450218 
L 367.725445 -196.999532 
L 370.274555 -196.660302 
L 372.823664 -188.637359 
L 375.372773 -184.568549 
L 377.921882 -186.118742 
L 380.470991 -190.102899 
L 383.020101 -192.5933 
L 385.56921 -189.060402 
L 388.118319 -189.949249 
L 390.667428 -191.479742 
L 393.216537 -188.247055 
L 395.765646 -188.043774 
L 398.314756 -185.355264 
L 400.863865 -185.139341 
L 403.412974 -185.983395 
L 405.962083 -186.685854 
L 408.511192 -187.335716 
L 411.060302 -188.115024 
L 413.609411 -188.987994 
L 416.15852 -190.779948 
L 418.707629 -188.706103 
L 421.256738 -188.316021 
L 423.805847 -187.972318 
L 426.354957 -187.979931 
L 428.904066 -191.645162 
L 431.453175 -191.290879 
L 434.002284 -189.704998 
L 436.551393 -192.591586 
L 439.100503 -192.878823 
L 441.649612 -192.9735 
L 444.198721 -193.611196 
L 446.74783 -191.743392 
L 449.296939 -190.069289 
L 451.846048 -189.448644 
L 454.395158 -187.89466 
L 456.944267 -190.072271 
L 459.493376 -190.260674 
L 462.042485 -189.562672 
L 464.591594 -190.126121 
L 467.140704 -187.680085 
L 469.689813 -183.522989 
L 472.238922 -182.44401 
L 474.788031 -185.649685 
L 477.33714 -185.665832 
L 479.886249 -186.575331 
L 482.435359 -185.501745 
L 484.984468 -183.576728 
L 487.533577 -185.0968 
L 490.082686 -183.300865 
L 492.631795 -183.84087 
L 495.180905 -184.723595 
L 497.730014 -186.220509 
L 500.279123 -182.26541 
L 502.828232 -183.711948 
L 505.377341 -183.434784 
L 507.92645 -182.36207 
L 510.47556 -181.386539 
L 513.024669 -179.623437 
L 515.573778 -182.687564 
L 518.122887 -185.093073 
L 520.671996 -183.374653 
L 523.221106 -181.037665 
L 525.770215 -182.652335 
L 528.319324 -183.249807 
L 530.868433 -180.769225 
L 533.417542 -182.378232 
L 535.966651 -182.871795 
L 538.515761 -181.436233 
L 541.06487 -178.265041 
L 543.613979 -178.315568 
L 546.163088 -181.041488 
L 548.712197 -183.962115 
L 551.261307 -183.97371 
L 553.810416 -183.558583 
L 556.359525 -183.172498 
L 558.908634 -183.733583 
L 561.457743 -184.352753 
L 564.006852 -181.042106 
L 566.555962 -180.798886 
L 569.105071 -182.622865 
L 571.65418 -181.887239 
L 574.203289 -181.944151 
L 576.752398 -182.447801 
L 579.301508 -182.252546 
L 581.850617 -183.379332 
L 584.399726 -184.028575 
L 586.948835 -182.560894 
L 589.497944 -183.188232 
L 592.047053 -182.921378 
L 594.596163 -182.795168 
L 597.145272 -183.46132 
L 599.694381 -183.422586 
L 602.24349 -184.026719 
L 604.792599 -181.135451 
L 607.341709 -185.394537 
L 609.890818 -187.18251 
L 612.439927 -184.221404 
L 614.989036 -186.391385 
L 617.538145 -184.646508 
L 620.087254 -185.645466 
L 622.636364 -184.879545 
L 622.636364 -197.840049 
L 622.636364 -197.840049 
L 620.087254 -195.365305 
L 617.538145 -194.026784 
L 614.989036 -196.168928 
L 612.439927 -190.75089 
L 609.890818 -193.294616 
L 607.341709 -191.550262 
L 604.792599 -188.48834 
L 602.24349 -190.827057 
L 599.694381 -188.438091 
L 597.145272 -187.617956 
L 594.596163 -183.467696 
L 592.047053 -187.08347 
L 589.497944 -186.109859 
L 586.948835 -188.106427 
L 584.399726 -185.866924 
L 581.850617 -187.551449 
L 579.301508 -191.095529 
L 576.752398 -191.32035 
L 574.203289 -193.616795 
L 571.65418 -186.970505 
L 569.105071 -189.351667 
L 566.555962 -192.603276 
L 564.006852 -190.784786 
L 561.457743 -194.112119 
L 558.908634 -195.855901 
L 556.359525 -192.856109 
L 553.810416 -189.481779 
L 551.261307 -189.351429 
L 548.712197 -192.66704 
L 546.163088 -191.723676 
L 543.613979 -187.46724 
L 541.06487 -185.991723 
L 538.515761 -188.898662 
L 535.966651 -188.545299 
L 533.417542 -185.442803 
L 530.868433 -187.532637 
L 528.319324 -189.412289 
L 525.770215 -186.204172 
L 523.221106 -183.0884 
L 520.671996 -185.570774 
L 518.122887 -187.937898 
L 515.573778 -188.314593 
L 513.024669 -186.756993 
L 510.47556 -187.053254 
L 507.92645 -185.340766 
L 505.377341 -188.830077 
L 502.828232 -185.952132 
L 500.279123 -187.511858 
L 497.730014 -187.394166 
L 495.180905 -190.547212 
L 492.631795 -190.312335 
L 490.082686 -191.262138 
L 487.533577 -192.817645 
L 484.984468 -191.268958 
L 482.435359 -193.208599 
L 479.886249 -191.201912 
L 477.33714 -187.514237 
L 474.788031 -188.901866 
L 472.238922 -187.137907 
L 469.689813 -188.935064 
L 467.140704 -190.230965 
L 464.591594 -193.478102 
L 462.042485 -194.492113 
L 459.493376 -195.603719 
L 456.944267 -197.212298 
L 454.395158 -195.710864 
L 451.846048 -194.671617 
L 449.296939 -196.495771 
L 446.74783 -195.856314 
L 444.198721 -195.820546 
L 441.649612 -196.026365 
L 439.100503 -196.075964 
L 436.551393 -195.428989 
L 434.002284 -191.162068 
L 431.453175 -194.714935 
L 428.904066 -195.664659 
L 426.354957 -192.051201 
L 423.805847 -192.396855 
L 421.256738 -192.011626 
L 418.707629 -191.705166 
L 416.15852 -193.20365 
L 413.609411 -191.346601 
L 411.060302 -190.16652 
L 408.511192 -191.71711 
L 405.962083 -195.052579 
L 403.412974 -192.712356 
L 400.863865 -190.969588 
L 398.314756 -188.755718 
L 395.765646 -192.368256 
L 393.216537 -195.36789 
L 390.667428 -195.420154 
L 388.118319 -190.773159 
L 385.56921 -192.376726 
L 383.020101 -193.942448 
L 380.470991 -197.663701 
L 377.921882 -193.351686 
L 375.372773 -192.884136 
L 372.823664 -198.156296 
L 370.274555 -201.309057 
L 367.725445 -198.909036 
L 365.176336 -199.483714 
L 362.627227 -199.81043 
L 360.078118 -200.92394 
L 357.529009 -201.813073 
L 354.979899 -200.849692 
L 352.43079 -203.011172 
L 349.881681 -201.933144 
L 347.332572 -205.93421 
L 344.783463 -199.065605 
L 342.234354 -200.055395 
L 339.685244 -196.762672 
L 337.136135 -201.535924 
L 334.587026 -196.781865 
L 332.037917 -199.343245 
L 329.488808 -200.657086 
L 326.939698 -202.520099 
L 324.390589 -197.586376 
L 321.84148 -198.507661 
L 319.292371 -199.87957 
L 316.743262 -198.294244 
L 314.194153 -201.891619 
L 311.645043 -199.70484 
L 309.095934 -198.823257 
L 306.546825 -199.392844 
L 303.997716 -200.565533 
L 301.448607 -199.824007 
L 298.899497 -200.611214 
L 296.350388 -201.318463 
L 293.801279 -198.633601 
L 291.25217 -197.45674 
L 288.703061 -200.080171 
L 286.153952 -199.512773 
L 283.604842 -200.83686 
L 281.055733 -205.059083 
L 278.506624 -204.467496 
L 275.957515 -206.468569 
L 273.408406 -206.317662 
L 270.859296 -206.402157 
L 268.310187 -210.103298 
L 265.761078 -213.206951 
L 263.211969 -211.48271 
L 260.66286 -210.749971 
L 258.113751 -205.792345 
L 255.564641 -208.459982 
L 253.015532 -209.946332 
L 250.466423 -207.976713 
L 247.917314 -206.054901 
L 245.368205 -205.952705 
L 242.819095 -206.297185 
L 240.269986 -205.740494 
L 237.720877 -207.592753 
L 235.171768 -210.225891 
L 232.622659 -208.58045 
L 230.07355 -210.290114 
L 227.52444 -210.132626 
L 224.975331 -213.766783 
L 222.426222 -209.997057 
L 219.877113 -211.530849 
L 217.328004 -211.850824 
L 214.778894 -212.018004 
L 212.229785 -214.827918 
L 209.680676 -212.419237 
L 207.131567 -217.452459 
L 204.582458 -218.902328 
L 202.033349 -222.875462 
L 199.484239 -217.978522 
L 196.93513 -217.278474 
L 194.386021 -217.747388 
L 191.836912 -218.636648 
L 189.287803 -222.779849 
L 186.738693 -224.524711 
L 184.189584 -230.443275 
L 181.640475 -227.937188 
L 179.091366 -230.434868 
L 176.542257 -233.431695 
L 173.993148 -235.341849 
L 171.444038 -233.219245 
L 168.894929 -232.994012 
L 166.34582 -234.965931 
L 163.796711 -230.569057 
L 161.247602 -231.373838 
L 158.698492 -231.543905 
L 156.149383 -233.246083 
L 153.600274 -232.902364 
L 151.051165 -238.849987 
L 148.502056 -241.307728 
L 145.952947 -251.030121 
L 143.403837 -256.638624 
L 140.854728 -261.726711 
L 138.305619 -263.193124 
L 135.75651 -263.355118 
L 133.207401 -271.402677 
L 130.658291 -286.490004 
L 128.109182 -313.20642 
L 125.560073 -324.0408 
L 123.010964 -325.45663 
L 120.461855 -327.086971 
L 117.912746 -327.086971 
L 115.363636 -327.086971 
z
" style="stroke: #956cb4; stroke-opacity: 0.2"/>
    </defs>
    <g clip-path="url(#peee3cbf530)">
     <use xlink:href="#md6370dea4a" x="0" y="432" style="fill: #956cb4; fill-opacity: 0.2; stroke: #956cb4; stroke-opacity: 0.2"/>
    </g>
   </g>
   <g id="PolyCollection_4">
    <defs>
     <path id="m984dc9636e" d="M 115.363636 -71.920163 
L 115.363636 -64.837293 
L 117.912746 -64.837291 
L 120.461855 -64.825412 
L 123.010964 -65.009963 
L 125.560073 -64.929854 
L 128.109182 -64.69374 
L 130.658291 -64.932912 
L 133.207401 -65.031295 
L 135.75651 -64.951565 
L 138.305619 -65.019496 
L 140.854728 -64.747058 
L 143.403837 -64.713408 
L 145.952947 -64.700317 
L 148.502056 -64.755017 
L 151.051165 -64.989599 
L 153.600274 -64.918855 
L 156.149383 -64.823144 
L 158.698492 -64.810306 
L 161.247602 -64.840417 
L 163.796711 -64.722142 
L 166.34582 -64.611772 
L 168.894929 -64.610209 
L 171.444038 -64.463122 
L 173.993148 -64.627891 
L 176.542257 -64.647894 
L 179.091366 -64.783829 
L 181.640475 -64.814385 
L 184.189584 -64.59685 
L 186.738693 -64.496114 
L 189.287803 -64.495453 
L 191.836912 -64.38357 
L 194.386021 -64.239054 
L 196.93513 -64.327831 
L 199.484239 -64.140815 
L 202.033349 -64.385902 
L 204.582458 -64.413985 
L 207.131567 -64.685401 
L 209.680676 -64.715034 
L 212.229785 -64.650956 
L 214.778894 -64.758588 
L 217.328004 -64.733174 
L 219.877113 -64.827867 
L 222.426222 -64.978196 
L 224.975331 -64.960481 
L 227.52444 -65.028612 
L 230.07355 -65.032899 
L 232.622659 -64.868453 
L 235.171768 -64.958138 
L 237.720877 -65.009388 
L 240.269986 -64.729625 
L 242.819095 -64.821582 
L 245.368205 -64.903431 
L 247.917314 -64.790999 
L 250.466423 -64.726373 
L 253.015532 -64.8644 
L 255.564641 -64.651392 
L 258.113751 -64.727382 
L 260.66286 -64.693157 
L 263.211969 -64.742954 
L 265.761078 -64.70177 
L 268.310187 -64.770379 
L 270.859296 -64.720582 
L 273.408406 -64.920254 
L 275.957515 -64.755449 
L 278.506624 -64.844821 
L 281.055733 -64.806896 
L 283.604842 -64.765957 
L 286.153952 -64.622637 
L 288.703061 -64.507754 
L 291.25217 -64.439522 
L 293.801279 -64.533989 
L 296.350388 -64.586054 
L 298.899497 -64.31879 
L 301.448607 -64.613961 
L 303.997716 -64.830785 
L 306.546825 -64.79867 
L 309.095934 -64.727127 
L 311.645043 -64.862485 
L 314.194153 -64.804632 
L 316.743262 -64.893877 
L 319.292371 -64.813784 
L 321.84148 -64.728487 
L 324.390589 -64.529922 
L 326.939698 -64.473235 
L 329.488808 -64.539136 
L 332.037917 -64.411207 
L 334.587026 -64.387629 
L 337.136135 -64.376821 
L 339.685244 -64.441542 
L 342.234354 -64.778226 
L 344.783463 -64.65416 
L 347.332572 -64.588235 
L 349.881681 -64.638584 
L 352.43079 -64.783221 
L 354.979899 -64.70906 
L 357.529009 -64.86165 
L 360.078118 -64.86441 
L 362.627227 -64.78511 
L 365.176336 -64.638036 
L 367.725445 -64.927701 
L 370.274555 -64.827942 
L 372.823664 -64.88617 
L 375.372773 -64.897588 
L 377.921882 -65.049682 
L 380.470991 -65.079268 
L 383.020101 -65.07394 
L 385.56921 -65.03116 
L 388.118319 -65.070931 
L 390.667428 -64.947435 
L 393.216537 -64.87671 
L 395.765646 -64.909591 
L 398.314756 -65.009908 
L 400.863865 -65.061701 
L 403.412974 -64.964609 
L 405.962083 -65.027371 
L 408.511192 -64.97531 
L 411.060302 -64.797907 
L 413.609411 -64.818854 
L 416.15852 -65.057123 
L 418.707629 -65.065135 
L 421.256738 -65.201162 
L 423.805847 -65.104886 
L 426.354957 -64.934097 
L 428.904066 -64.796314 
L 431.453175 -64.852561 
L 434.002284 -64.771648 
L 436.551393 -64.814123 
L 439.100503 -64.804071 
L 441.649612 -64.803962 
L 444.198721 -64.739736 
L 446.74783 -64.856398 
L 449.296939 -64.848047 
L 451.846048 -64.922558 
L 454.395158 -65.048875 
L 456.944267 -64.868266 
L 459.493376 -65.100243 
L 462.042485 -64.967091 
L 464.591594 -65.202694 
L 467.140704 -64.996148 
L 469.689813 -65.058771 
L 472.238922 -64.825912 
L 474.788031 -64.760818 
L 477.33714 -64.662939 
L 479.886249 -64.711961 
L 482.435359 -64.690427 
L 484.984468 -64.789702 
L 487.533577 -64.841974 
L 490.082686 -64.78611 
L 492.631795 -64.828951 
L 495.180905 -64.680339 
L 497.730014 -64.69373 
L 500.279123 -64.62019 
L 502.828232 -64.688573 
L 505.377341 -64.611016 
L 507.92645 -64.57124 
L 510.47556 -64.658337 
L 513.024669 -64.625541 
L 515.573778 -64.751922 
L 518.122887 -64.983817 
L 520.671996 -64.845578 
L 523.221106 -64.816276 
L 525.770215 -64.964337 
L 528.319324 -64.968283 
L 530.868433 -65.013766 
L 533.417542 -64.962024 
L 535.966651 -64.936671 
L 538.515761 -64.870792 
L 541.06487 -64.897348 
L 543.613979 -64.877849 
L 546.163088 -64.786609 
L 548.712197 -64.785237 
L 551.261307 -64.585838 
L 553.810416 -64.51664 
L 556.359525 -64.613326 
L 558.908634 -64.617833 
L 561.457743 -64.651675 
L 564.006852 -64.755703 
L 566.555962 -64.697775 
L 569.105071 -64.714927 
L 571.65418 -64.786189 
L 574.203289 -64.84563 
L 576.752398 -64.78234 
L 579.301508 -64.801598 
L 581.850617 -64.979471 
L 584.399726 -65.046708 
L 586.948835 -65.129525 
L 589.497944 -65.049817 
L 592.047053 -64.976162 
L 594.596163 -65.098092 
L 597.145272 -64.893115 
L 599.694381 -64.805005 
L 602.24349 -64.770518 
L 604.792599 -64.875987 
L 607.341709 -64.912058 
L 609.890818 -64.9847 
L 612.439927 -65.098964 
L 614.989036 -65.060688 
L 617.538145 -64.815378 
L 620.087254 -64.94132 
L 622.636364 -64.930324 
L 622.636364 -71.267759 
L 622.636364 -71.267759 
L 620.087254 -71.08998 
L 617.538145 -71.45254 
L 614.989036 -71.72788 
L 612.439927 -71.630326 
L 609.890818 -71.61857 
L 607.341709 -71.743944 
L 604.792599 -71.450028 
L 602.24349 -71.554438 
L 599.694381 -71.217766 
L 597.145272 -71.282794 
L 594.596163 -71.153469 
L 592.047053 -71.402473 
L 589.497944 -71.335452 
L 586.948835 -71.6814 
L 584.399726 -71.380424 
L 581.850617 -71.304249 
L 579.301508 -71.698338 
L 576.752398 -71.084012 
L 574.203289 -71.242375 
L 571.65418 -71.169995 
L 569.105071 -71.148725 
L 566.555962 -71.37762 
L 564.006852 -71.373574 
L 561.457743 -71.196103 
L 558.908634 -71.363135 
L 556.359525 -71.563817 
L 553.810416 -71.578157 
L 551.261307 -71.002133 
L 548.712197 -71.07117 
L 546.163088 -71.477026 
L 543.613979 -71.474032 
L 541.06487 -71.387407 
L 538.515761 -71.564516 
L 535.966651 -71.507948 
L 533.417542 -71.668667 
L 530.868433 -71.722626 
L 528.319324 -71.952047 
L 525.770215 -71.748603 
L 523.221106 -71.924791 
L 520.671996 -71.850894 
L 518.122887 -71.670876 
L 515.573778 -71.670023 
L 513.024669 -71.699724 
L 510.47556 -71.671096 
L 507.92645 -71.077647 
L 505.377341 -71.363773 
L 502.828232 -71.725905 
L 500.279123 -71.491853 
L 497.730014 -71.559159 
L 495.180905 -71.676031 
L 492.631795 -71.828985 
L 490.082686 -71.740934 
L 487.533577 -71.53849 
L 484.984468 -71.601127 
L 482.435359 -71.935914 
L 479.886249 -71.674419 
L 477.33714 -71.621546 
L 474.788031 -71.818073 
L 472.238922 -71.738057 
L 469.689813 -72.107274 
L 467.140704 -71.70174 
L 464.591594 -71.799992 
L 462.042485 -71.486276 
L 459.493376 -71.509328 
L 456.944267 -71.355981 
L 454.395158 -71.65889 
L 451.846048 -71.726778 
L 449.296939 -71.409046 
L 446.74783 -71.591747 
L 444.198721 -71.244431 
L 441.649612 -71.590876 
L 439.100503 -71.69485 
L 436.551393 -71.869997 
L 434.002284 -71.544624 
L 431.453175 -71.791877 
L 428.904066 -71.70384 
L 426.354957 -71.468854 
L 423.805847 -71.469369 
L 421.256738 -71.599901 
L 418.707629 -71.513942 
L 416.15852 -71.402668 
L 413.609411 -71.431054 
L 411.060302 -71.312737 
L 408.511192 -71.34766 
L 405.962083 -71.672492 
L 403.412974 -71.64085 
L 400.863865 -71.791994 
L 398.314756 -71.496219 
L 395.765646 -71.378296 
L 393.216537 -71.4329 
L 390.667428 -71.512939 
L 388.118319 -71.641229 
L 385.56921 -71.902934 
L 383.020101 -72.044535 
L 380.470991 -71.912934 
L 377.921882 -71.450203 
L 375.372773 -71.481182 
L 372.823664 -71.442208 
L 370.274555 -71.393807 
L 367.725445 -71.334665 
L 365.176336 -71.480565 
L 362.627227 -71.482974 
L 360.078118 -71.294413 
L 357.529009 -71.442845 
L 354.979899 -71.531588 
L 352.43079 -71.675531 
L 349.881681 -71.751639 
L 347.332572 -71.479189 
L 344.783463 -71.522376 
L 342.234354 -71.795882 
L 339.685244 -72.00374 
L 337.136135 -71.309495 
L 334.587026 -71.272742 
L 332.037917 -71.345816 
L 329.488808 -71.513074 
L 326.939698 -71.684045 
L 324.390589 -71.859888 
L 321.84148 -72.087689 
L 319.292371 -71.911441 
L 316.743262 -72.003807 
L 314.194153 -72.088908 
L 311.645043 -71.952731 
L 309.095934 -72.385449 
L 306.546825 -72.035195 
L 303.997716 -71.998678 
L 301.448607 -71.727099 
L 298.899497 -71.733261 
L 296.350388 -71.645608 
L 293.801279 -71.909481 
L 291.25217 -72.014745 
L 288.703061 -71.670658 
L 286.153952 -71.595532 
L 283.604842 -71.434109 
L 281.055733 -71.354024 
L 278.506624 -71.279638 
L 275.957515 -71.225586 
L 273.408406 -71.222592 
L 270.859296 -71.01527 
L 268.310187 -71.064794 
L 265.761078 -71.098218 
L 263.211969 -71.298331 
L 260.66286 -71.363926 
L 258.113751 -71.650635 
L 255.564641 -71.629517 
L 253.015532 -71.613782 
L 250.466423 -71.67155 
L 247.917314 -71.460062 
L 245.368205 -71.253631 
L 242.819095 -71.395568 
L 240.269986 -71.128864 
L 237.720877 -71.339789 
L 235.171768 -71.183321 
L 232.622659 -71.20992 
L 230.07355 -71.120931 
L 227.52444 -71.258578 
L 224.975331 -71.457939 
L 222.426222 -71.281327 
L 219.877113 -70.987173 
L 217.328004 -71.065577 
L 214.778894 -71.470569 
L 212.229785 -71.585414 
L 209.680676 -71.359148 
L 207.131567 -71.096402 
L 204.582458 -71.057166 
L 202.033349 -71.091998 
L 199.484239 -71.564695 
L 196.93513 -71.318812 
L 194.386021 -71.335534 
L 191.836912 -70.907842 
L 189.287803 -70.850435 
L 186.738693 -70.628693 
L 184.189584 -70.899513 
L 181.640475 -70.936496 
L 179.091366 -71.156073 
L 176.542257 -70.835926 
L 173.993148 -70.963819 
L 171.444038 -71.108956 
L 168.894929 -71.177176 
L 166.34582 -71.186812 
L 163.796711 -70.993815 
L 161.247602 -71.119894 
L 158.698492 -70.888116 
L 156.149383 -71.227265 
L 153.600274 -70.989618 
L 151.051165 -71.094254 
L 148.502056 -71.663835 
L 145.952947 -71.592984 
L 143.403837 -71.727317 
L 140.854728 -71.428474 
L 138.305619 -71.340522 
L 135.75651 -71.478414 
L 133.207401 -71.568482 
L 130.658291 -71.739943 
L 128.109182 -71.956143 
L 125.560073 -71.975863 
L 123.010964 -71.705852 
L 120.461855 -71.873205 
L 117.912746 -71.920161 
L 115.363636 -71.920163 
z
" style="stroke: #ee854a; stroke-opacity: 0.2"/>
    </defs>
    <g clip-path="url(#peee3cbf530)">
     <use xlink:href="#m984dc9636e" x="0" y="432" style="fill: #ee854a; fill-opacity: 0.2; stroke: #ee854a; stroke-opacity: 0.2"/>
    </g>
   </g>
   <g id="line2d_16">
    <path d="M 115.363636 300.43373 
L 120.461855 300.43373 
L 123.010964 301.36128 
L 125.560073 301.530363 
L 128.109182 302.090195 
L 130.658291 303.828887 
L 133.207401 304.604419 
L 138.305619 304.148234 
L 140.854728 305.76434 
L 143.403837 305.380634 
L 145.952947 305.176528 
L 148.502056 306.703706 
L 151.051165 307.285356 
L 153.600274 308.156978 
L 156.149383 306.208272 
L 158.698492 306.984645 
L 161.247602 306.117179 
L 166.34582 303.845176 
L 168.894929 304.486219 
L 171.444038 307.085723 
L 176.542257 307.467034 
L 179.091366 306.850187 
L 181.640475 307.434034 
L 184.189584 304.979703 
L 186.738693 307.61403 
L 189.287803 309.98232 
L 191.836912 310.001703 
L 194.386021 311.765543 
L 196.93513 311.604517 
L 199.484239 310.575327 
L 202.033349 309.754525 
L 204.582458 311.903823 
L 207.131567 311.782737 
L 209.680676 313.387715 
L 212.229785 311.533933 
L 214.778894 311.713311 
L 217.328004 311.440152 
L 219.877113 311.712708 
L 222.426222 313.8751 
L 224.975331 313.324848 
L 227.52444 313.939958 
L 232.622659 314.110207 
L 235.171768 313.038207 
L 237.720877 313.717555 
L 240.269986 314.86926 
L 242.819095 314.527254 
L 245.368205 315.391659 
L 247.917314 315.119451 
L 250.466423 315.746512 
L 253.015532 314.520663 
L 255.564641 313.633283 
L 258.113751 314.669555 
L 260.66286 314.672894 
L 265.761078 314.206867 
L 268.310187 314.88417 
L 270.859296 316.661476 
L 278.506624 316.104967 
L 281.055733 316.48098 
L 283.604842 318.145348 
L 286.153952 318.271439 
L 288.703061 318.882948 
L 291.25217 320.273463 
L 293.801279 319.98018 
L 296.350388 319.362711 
L 298.899497 318.891783 
L 301.448607 319.622737 
L 306.546825 319.282781 
L 309.095934 318.59344 
L 311.645043 318.075335 
L 314.194153 319.415458 
L 316.743262 320.582517 
L 319.292371 319.578979 
L 321.84148 320.010773 
L 324.390589 319.478825 
L 326.939698 318.557295 
L 329.488808 318.150079 
L 332.037917 318.737601 
L 334.587026 319.13716 
L 337.136135 318.588733 
L 339.685244 317.72365 
L 342.234354 317.86634 
L 344.783463 318.370756 
L 347.332572 317.798746 
L 349.881681 317.988735 
L 352.43079 316.62459 
L 354.979899 317.512708 
L 357.529009 318.797978 
L 362.627227 318.182087 
L 365.176336 320.021709 
L 367.725445 319.743018 
L 370.274555 319.654079 
L 372.823664 320.255139 
L 375.372773 320.242529 
L 377.921882 319.544008 
L 380.470991 319.052769 
L 383.020101 320.057953 
L 385.56921 321.270367 
L 388.118319 321.174325 
L 390.667428 321.472855 
L 395.765646 320.496198 
L 398.314756 320.02707 
L 400.863865 321.257238 
L 403.412974 320.91125 
L 405.962083 320.221136 
L 408.511192 321.191654 
L 411.060302 321.123858 
L 413.609411 321.691161 
L 418.707629 320.958434 
L 421.256738 321.903198 
L 423.805847 322.696051 
L 426.354957 321.71376 
L 428.904066 321.24523 
L 431.453175 321.964312 
L 434.002284 321.60794 
L 439.100503 320.133735 
L 441.649612 320.486285 
L 444.198721 320.340407 
L 449.296939 322.601739 
L 451.846048 322.29732 
L 454.395158 322.848337 
L 456.944267 322.662746 
L 459.493376 321.680819 
L 462.042485 321.579242 
L 464.591594 319.729191 
L 467.140704 320.186459 
L 469.689813 322.172304 
L 472.238922 323.708904 
L 474.788031 323.370594 
L 477.33714 321.674427 
L 479.886249 321.128835 
L 482.435359 322.028234 
L 484.984468 322.068792 
L 487.533577 320.209969 
L 490.082686 322.667088 
L 492.631795 322.287256 
L 495.180905 322.233359 
L 497.730014 321.515856 
L 500.279123 323.811897 
L 502.828232 323.384318 
L 507.92645 324.209846 
L 510.47556 324.370583 
L 513.024669 324.12072 
L 515.573778 323.376022 
L 518.122887 323.2746 
L 523.221106 323.896272 
L 525.770215 322.291713 
L 528.319324 321.738448 
L 533.417542 323.133436 
L 535.966651 321.564174 
L 538.515761 321.756031 
L 541.06487 322.50398 
L 543.613979 322.955446 
L 546.163088 321.747342 
L 548.712197 321.758196 
L 551.261307 321.993414 
L 553.810416 321.832079 
L 556.359525 322.529696 
L 558.908634 322.190747 
L 561.457743 322.250315 
L 564.006852 323.962319 
L 566.555962 323.111309 
L 569.105071 323.265273 
L 571.65418 324.341191 
L 574.203289 324.057805 
L 576.752398 324.430226 
L 579.301508 324.022609 
L 581.850617 323.937282 
L 584.399726 324.485789 
L 586.948835 323.948202 
L 589.497944 324.37245 
L 592.047053 323.606696 
L 594.596163 324.591216 
L 599.694381 325.311487 
L 602.24349 324.413139 
L 604.792599 325.616933 
L 607.341709 323.635929 
L 609.890818 322.859595 
L 612.439927 325.145703 
L 614.989036 324.203906 
L 617.538145 325.161513 
L 620.087254 325.664267 
L 622.636364 324.868519 
L 622.636364 324.868519 
" clip-path="url(#peee3cbf530)" style="fill: none; stroke: #4878d0; stroke-width: 2; stroke-linecap: round"/>
   </g>
   <g id="line2d_17">
    <path d="M 115.363636 348.160538 
L 123.010964 348.225724 
L 130.658291 348.366273 
L 138.305619 348.274673 
L 140.854728 348.36688 
L 143.403837 348.278773 
L 151.051165 348.461601 
L 179.091366 348.44769 
L 191.836912 348.42481 
L 199.484239 348.485389 
L 202.033349 348.359937 
L 207.131567 348.347188 
L 217.328004 348.266306 
L 222.426222 348.346577 
L 227.52444 348.33693 
L 230.07355 348.424136 
L 237.720877 348.340423 
L 240.269986 348.413426 
L 247.917314 348.283381 
L 253.015532 348.313926 
L 270.859296 348.394102 
L 273.408406 348.292823 
L 301.448607 348.349345 
L 309.095934 348.239615 
L 316.743262 348.299568 
L 337.136135 348.407244 
L 339.685244 348.302106 
L 362.627227 348.382761 
L 383.020101 348.380473 
L 388.118319 348.425167 
L 390.667428 348.534274 
L 395.765646 348.38271 
L 400.863865 348.405618 
L 416.15852 348.368795 
L 421.256738 348.384383 
L 431.453175 348.358442 
L 436.551393 348.318264 
L 439.100503 348.280451 
L 441.649612 348.387801 
L 454.395158 348.398754 
L 469.689813 348.374212 
L 477.33714 348.333991 
L 513.024669 348.483474 
L 518.122887 348.356852 
L 523.221106 348.418668 
L 525.770215 348.314727 
L 530.868433 348.357732 
L 533.417542 348.351938 
L 538.515761 348.486293 
L 543.613979 348.366269 
L 553.810416 348.534865 
L 564.006852 348.517168 
L 566.555962 348.566969 
L 569.105071 348.466693 
L 574.203289 348.535686 
L 581.850617 348.449503 
L 584.399726 348.500731 
L 586.948835 348.405237 
L 589.497944 348.481134 
L 594.596163 348.398191 
L 609.890818 348.539473 
L 614.989036 348.447048 
L 617.538145 348.507484 
L 620.087254 348.371964 
L 622.636364 348.45091 
L 622.636364 348.45091 
" clip-path="url(#peee3cbf530)" style="fill: none; stroke: #d65f5f; stroke-width: 2; stroke-linecap: round"/>
   </g>
   <g id="line2d_18">
    <path d="M 115.363636 107.068259 
L 120.461855 107.068259 
L 123.010964 109.009645 
L 125.560073 110.608961 
L 128.109182 121.814199 
L 130.658291 146.963894 
L 133.207401 162.531396 
L 135.75651 174.141261 
L 138.305619 175.887344 
L 140.854728 180.074418 
L 143.403837 183.445734 
L 145.952947 187.754704 
L 148.502056 194.636221 
L 151.051165 197.393396 
L 153.600274 200.805794 
L 156.149383 199.520456 
L 158.698492 202.030699 
L 161.247602 202.617686 
L 163.796711 202.992192 
L 166.34582 197.538846 
L 168.894929 201.838426 
L 171.444038 203.137642 
L 173.993148 202.709413 
L 176.542257 204.562672 
L 179.091366 205.753808 
L 181.640475 207.965093 
L 184.189584 204.94679 
L 186.738693 210.036638 
L 189.287803 214.019844 
L 191.836912 215.916104 
L 194.386021 218.157145 
L 196.93513 217.183803 
L 202.033349 214.25415 
L 204.582458 216.145826 
L 207.131567 216.103888 
L 209.680676 221.160379 
L 212.229785 218.705874 
L 214.778894 220.665088 
L 217.328004 221.37259 
L 219.877113 225.049654 
L 222.426222 226.062728 
L 224.975331 223.809125 
L 227.52444 226.248308 
L 230.07355 226.164147 
L 232.622659 226.423387 
L 235.171768 225.791052 
L 237.720877 227.094155 
L 240.269986 228.860366 
L 242.819095 228.301771 
L 245.368205 227.334377 
L 247.917314 227.453402 
L 250.466423 226.439931 
L 253.015532 225.04277 
L 255.564641 226.193411 
L 258.113751 228.79305 
L 260.66286 225.262515 
L 263.211969 224.732487 
L 265.761078 224.053392 
L 268.310187 225.931205 
L 270.859296 229.485706 
L 273.408406 228.370721 
L 275.957515 228.038184 
L 278.506624 228.56504 
L 281.055733 228.534618 
L 283.604842 233.292024 
L 286.153952 233.840373 
L 291.25217 236.263488 
L 293.801279 236.004708 
L 296.350388 233.376265 
L 298.899497 233.8799 
L 301.448607 233.453606 
L 303.997716 233.198426 
L 306.546825 233.816771 
L 309.095934 234.566005 
L 314.194153 232.952969 
L 316.743262 235.04948 
L 319.292371 232.920929 
L 321.84148 234.160442 
L 324.390589 235.736061 
L 326.939698 232.295937 
L 329.488808 233.716716 
L 332.037917 235.622525 
L 334.587026 236.965995 
L 337.136135 233.409368 
L 339.685244 236.223454 
L 342.234354 235.341379 
L 344.783463 234.685411 
L 347.332572 231.165043 
L 349.881681 233.626322 
L 354.979899 235.226161 
L 357.529009 233.086586 
L 360.078118 233.370745 
L 362.627227 233.168336 
L 365.176336 235.533034 
L 367.725445 234.045716 
L 370.274555 233.01532 
L 372.823664 238.603172 
L 375.372773 243.273658 
L 377.921882 242.264786 
L 380.470991 238.1167 
L 383.020101 238.732126 
L 385.56921 241.281436 
L 388.118319 241.638796 
L 390.667428 238.550052 
L 395.765646 241.793985 
L 398.314756 244.944509 
L 400.863865 243.945535 
L 403.412974 242.652124 
L 405.962083 241.130783 
L 408.511192 242.473587 
L 411.060302 242.859228 
L 413.609411 241.832703 
L 416.15852 240.008201 
L 418.707629 241.794366 
L 426.354957 241.984434 
L 428.904066 238.34509 
L 431.453175 238.997093 
L 434.002284 241.566467 
L 436.551393 237.989712 
L 439.100503 237.522607 
L 441.649612 237.500068 
L 444.198721 237.284129 
L 446.74783 238.200147 
L 449.296939 238.71747 
L 451.846048 239.939869 
L 454.395158 240.197238 
L 456.944267 238.357715 
L 459.493376 239.067803 
L 462.042485 239.972607 
L 464.591594 240.197889 
L 469.689813 245.770973 
L 472.238922 247.209041 
L 474.788031 244.724225 
L 477.33714 245.409965 
L 479.886249 243.111379 
L 482.435359 242.644828 
L 484.984468 244.577157 
L 487.533577 243.042777 
L 490.082686 244.718499 
L 492.631795 244.923398 
L 495.180905 244.364597 
L 497.730014 245.192663 
L 500.279123 247.111366 
L 502.828232 247.16796 
L 505.377341 245.86757 
L 507.92645 248.148582 
L 510.47556 247.780103 
L 513.024669 248.809785 
L 515.573778 246.498921 
L 518.122887 245.484514 
L 520.671996 247.527287 
L 523.221106 249.936967 
L 525.770215 247.571746 
L 528.319324 245.668952 
L 530.868433 247.849069 
L 533.417542 248.089482 
L 535.966651 246.291453 
L 538.515761 246.832552 
L 541.06487 249.871618 
L 543.613979 249.1086 
L 546.163088 245.617418 
L 548.712197 243.685422 
L 551.261307 245.337431 
L 553.810416 245.479819 
L 556.359525 243.985697 
L 558.908634 242.205258 
L 561.457743 242.767564 
L 564.006852 246.086554 
L 566.555962 245.298919 
L 569.105071 246.012734 
L 571.65418 247.571128 
L 574.203289 244.219527 
L 576.752398 245.115925 
L 579.301508 245.325963 
L 581.850617 246.53461 
L 584.399726 247.05225 
L 586.948835 246.66634 
L 589.497944 247.350954 
L 592.047053 246.997576 
L 594.596163 248.868568 
L 597.145272 246.460362 
L 599.694381 246.069661 
L 602.24349 244.573112 
L 604.792599 247.188104 
L 607.341709 243.5276 
L 609.890818 241.761437 
L 612.439927 244.513853 
L 614.989036 240.719843 
L 617.538145 242.663354 
L 620.087254 241.494615 
L 622.636364 240.640203 
L 622.636364 240.640203 
" clip-path="url(#peee3cbf530)" style="fill: none; stroke: #956cb4; stroke-width: 2; stroke-linecap: round"/>
   </g>
   <g id="line2d_19">
    <path d="M 115.363636 363.621272 
L 133.207401 363.700112 
L 140.854728 363.912234 
L 143.403837 363.779637 
L 145.952947 363.85335 
L 148.502056 363.790574 
L 153.600274 364.045764 
L 156.149383 363.974795 
L 158.698492 364.150789 
L 161.247602 364.019844 
L 163.796711 364.142021 
L 168.894929 364.106307 
L 171.444038 364.213961 
L 176.542257 364.25809 
L 179.091366 364.030049 
L 184.189584 364.251819 
L 186.738693 364.437597 
L 189.287803 364.327056 
L 191.836912 364.354294 
L 196.93513 364.176679 
L 199.484239 364.147246 
L 204.582458 364.264425 
L 212.229785 363.881815 
L 214.778894 363.885422 
L 217.328004 364.100625 
L 219.877113 364.09248 
L 222.426222 363.870238 
L 224.975331 363.79079 
L 232.622659 363.960813 
L 237.720877 363.825412 
L 240.269986 364.070756 
L 242.819095 363.891425 
L 247.917314 363.874469 
L 253.015532 363.760909 
L 255.564641 363.859546 
L 258.113751 363.810992 
L 260.66286 363.971459 
L 263.211969 363.979358 
L 265.761078 364.100006 
L 270.859296 364.132074 
L 273.408406 363.928577 
L 275.957515 364.009483 
L 283.604842 363.899967 
L 296.350388 363.884169 
L 298.899497 363.973975 
L 309.095934 363.443712 
L 311.645043 363.592392 
L 316.743262 363.551158 
L 319.292371 363.637387 
L 321.84148 363.591912 
L 326.939698 363.92136 
L 337.136135 364.156842 
L 339.685244 363.777359 
L 342.234354 363.712946 
L 344.783463 363.911732 
L 347.332572 363.966288 
L 349.881681 363.804889 
L 352.43079 363.770624 
L 354.979899 363.879676 
L 362.627227 363.865958 
L 365.176336 363.940699 
L 372.823664 363.835811 
L 377.921882 363.750058 
L 380.470991 363.503899 
L 383.020101 363.440762 
L 395.765646 363.856056 
L 400.863865 363.573152 
L 403.412974 363.697271 
L 405.962083 363.650069 
L 411.060302 363.944678 
L 421.256738 363.599468 
L 426.354957 363.798524 
L 431.453175 363.677781 
L 434.002284 363.841864 
L 436.551393 363.65794 
L 444.198721 364.007916 
L 446.74783 363.775928 
L 449.296939 363.871454 
L 451.846048 363.675332 
L 454.395158 363.646117 
L 456.944267 363.887876 
L 459.493376 363.695214 
L 462.042485 363.773317 
L 464.591594 363.498657 
L 467.140704 363.651056 
L 469.689813 363.416978 
L 472.238922 363.718015 
L 474.788031 363.710555 
L 477.33714 363.857757 
L 484.984468 363.804586 
L 490.082686 363.736478 
L 492.631795 363.671032 
L 497.730014 363.873555 
L 500.279123 363.943978 
L 502.828232 363.792761 
L 507.92645 364.175557 
L 510.47556 363.835284 
L 515.573778 363.789027 
L 520.671996 363.651764 
L 530.868433 363.631804 
L 548.712197 364.071796 
L 551.261307 364.206015 
L 553.810416 363.952601 
L 556.359525 363.911429 
L 561.457743 364.076111 
L 564.006852 363.935362 
L 576.752398 364.066824 
L 579.301508 363.750032 
L 581.850617 363.85814 
L 584.399726 363.786434 
L 586.948835 363.594537 
L 589.497944 363.807365 
L 597.145272 363.912045 
L 599.694381 363.988615 
L 602.24349 363.837522 
L 604.792599 363.836993 
L 607.341709 363.671999 
L 612.439927 363.635355 
L 614.989036 363.605716 
L 617.538145 363.866041 
L 620.087254 363.98435 
L 622.636364 363.900958 
L 622.636364 363.900958 
" clip-path="url(#peee3cbf530)" style="fill: none; stroke: #ee854a; stroke-width: 2; stroke-linecap: round"/>
   </g>
   <g id="patch_3">
    <path d="M 90 384.48 
L 90 51.84 
" style="fill: none; stroke: #cccccc; stroke-width: 0.8; stroke-linejoin: miter; stroke-linecap: square"/>
   </g>
   <g id="patch_4">
    <path d="M 90 384.48 
L 648 384.48 
" style="fill: none; stroke: #cccccc; stroke-width: 0.8; stroke-linejoin: miter; stroke-linecap: square"/>
   </g>
   <g id="legend_1">
    <g id="patch_5">
     <path d="M 335.46875 181.94 
L 634 181.94 
Q 638 181.94 638 177.94 
L 638 65.84 
Q 638 61.84 634 61.84 
L 335.46875 61.84 
Q 331.46875 61.84 331.46875 65.84 
L 331.46875 177.94 
Q 331.46875 181.94 335.46875 181.94 
z
" style="fill: #ffffff; opacity: 0.8; stroke: #cccccc; stroke-linejoin: miter"/>
    </g>
    <g id="line2d_20">
     <path d="M 339.46875 77.155625 
L 359.46875 77.155625 
L 379.46875 77.155625 
" style="fill: none; stroke: #4878d0; stroke-width: 2; stroke-linecap: round"/>
    </g>
    <g id="text_18">
     <!-- Masked Acronym Mean -->
     <g style="fill: #262626" transform="translate(395.46875 84.155625) scale(0.2 -0.2)">
      <defs>
       <path id="ArialMT-4d" d="M 475 0 
L 475 4581 
L 1388 4581 
L 2472 1338 
Q 2622 884 2691 659 
Q 2769 909 2934 1394 
L 4031 4581 
L 4847 4581 
L 4847 0 
L 4263 0 
L 4263 3834 
L 2931 0 
L 2384 0 
L 1059 3900 
L 1059 0 
L 475 0 
z
" transform="scale(0.015625)"/>
       <path id="ArialMT-6b" d="M 425 0 
L 425 4581 
L 988 4581 
L 988 1969 
L 2319 3319 
L 3047 3319 
L 1778 2088 
L 3175 0 
L 2481 0 
L 1384 1697 
L 988 1316 
L 988 0 
L 425 0 
z
" transform="scale(0.015625)"/>
       <path id="ArialMT-41" d="M -9 0 
L 1750 4581 
L 2403 4581 
L 4278 0 
L 3588 0 
L 3053 1388 
L 1138 1388 
L 634 0 
L -9 0 
z
M 1313 1881 
L 2866 1881 
L 2388 3150 
Q 2169 3728 2063 4100 
Q 1975 3659 1816 3225 
L 1313 1881 
z
" transform="scale(0.015625)"/>
       <path id="ArialMT-79" d="M 397 -1278 
L 334 -750 
Q 519 -800 656 -800 
Q 844 -800 956 -737 
Q 1069 -675 1141 -563 
Q 1194 -478 1313 -144 
Q 1328 -97 1363 -6 
L 103 3319 
L 709 3319 
L 1400 1397 
Q 1534 1031 1641 628 
Q 1738 1016 1872 1384 
L 2581 3319 
L 3144 3319 
L 1881 -56 
Q 1678 -603 1566 -809 
Q 1416 -1088 1222 -1217 
Q 1028 -1347 759 -1347 
Q 597 -1347 397 -1278 
z
" transform="scale(0.015625)"/>
      </defs>
      <use xlink:href="#ArialMT-4d"/>
      <use xlink:href="#ArialMT-61" x="83.300781"/>
      <use xlink:href="#ArialMT-73" x="138.916016"/>
      <use xlink:href="#ArialMT-6b" x="188.916016"/>
      <use xlink:href="#ArialMT-65" x="238.916016"/>
      <use xlink:href="#ArialMT-64" x="294.53125"/>
      <use xlink:href="#ArialMT-20" x="350.146484"/>
      <use xlink:href="#ArialMT-41" x="372.429688"/>
      <use xlink:href="#ArialMT-63" x="439.128906"/>
      <use xlink:href="#ArialMT-72" x="489.128906"/>
      <use xlink:href="#ArialMT-6f" x="522.429688"/>
      <use xlink:href="#ArialMT-6e" x="578.044922"/>
      <use xlink:href="#ArialMT-79" x="633.660156"/>
      <use xlink:href="#ArialMT-6d" x="683.660156"/>
      <use xlink:href="#ArialMT-20" x="766.960938"/>
      <use xlink:href="#ArialMT-4d" x="794.744141"/>
      <use xlink:href="#ArialMT-65" x="878.044922"/>
      <use xlink:href="#ArialMT-61" x="933.660156"/>
      <use xlink:href="#ArialMT-6e" x="989.275391"/>
     </g>
    </g>
    <g id="line2d_21">
     <path d="M 339.46875 105.680625 
L 359.46875 105.680625 
L 379.46875 105.680625 
" style="fill: none; stroke: #d65f5f; stroke-width: 2; stroke-linecap: round"/>
    </g>
    <g id="text_19">
     <!-- Masked Toxicity Mean -->
     <g style="fill: #262626" transform="translate(395.46875 112.680625) scale(0.2 -0.2)">
      <defs>
       <path id="ArialMT-54" d="M 1659 0 
L 1659 4041 
L 150 4041 
L 150 4581 
L 3781 4581 
L 3781 4041 
L 2266 4041 
L 2266 0 
L 1659 0 
z
" transform="scale(0.015625)"/>
       <path id="ArialMT-78" d="M 47 0 
L 1259 1725 
L 138 3319 
L 841 3319 
L 1350 2541 
Q 1494 2319 1581 2169 
Q 1719 2375 1834 2534 
L 2394 3319 
L 3066 3319 
L 1919 1756 
L 3153 0 
L 2463 0 
L 1781 1031 
L 1600 1309 
L 728 0 
L 47 0 
z
" transform="scale(0.015625)"/>
      </defs>
      <use xlink:href="#ArialMT-4d"/>
      <use xlink:href="#ArialMT-61" x="83.300781"/>
      <use xlink:href="#ArialMT-73" x="138.916016"/>
      <use xlink:href="#ArialMT-6b" x="188.916016"/>
      <use xlink:href="#ArialMT-65" x="238.916016"/>
      <use xlink:href="#ArialMT-64" x="294.53125"/>
      <use xlink:href="#ArialMT-20" x="350.146484"/>
      <use xlink:href="#ArialMT-54" x="376.179688"/>
      <use xlink:href="#ArialMT-6f" x="426.138672"/>
      <use xlink:href="#ArialMT-78" x="481.753906"/>
      <use xlink:href="#ArialMT-69" x="531.753906"/>
      <use xlink:href="#ArialMT-63" x="553.970703"/>
      <use xlink:href="#ArialMT-69" x="603.970703"/>
      <use xlink:href="#ArialMT-74" x="626.1875"/>
      <use xlink:href="#ArialMT-79" x="653.970703"/>
      <use xlink:href="#ArialMT-20" x="703.970703"/>
      <use xlink:href="#ArialMT-4d" x="731.753906"/>
      <use xlink:href="#ArialMT-65" x="815.054688"/>
      <use xlink:href="#ArialMT-61" x="870.669922"/>
      <use xlink:href="#ArialMT-6e" x="926.285156"/>
     </g>
    </g>
    <g id="line2d_22">
     <path d="M 339.46875 134.205625 
L 359.46875 134.205625 
L 379.46875 134.205625 
" style="fill: none; stroke: #956cb4; stroke-width: 2; stroke-linecap: round"/>
    </g>
    <g id="text_20">
     <!-- Unmasked Acronym Mean -->
     <g style="fill: #262626" transform="translate(395.46875 141.205625) scale(0.2 -0.2)">
      <defs>
       <path id="ArialMT-55" d="M 3500 4581 
L 4106 4581 
L 4106 1934 
Q 4106 1244 3950 837 
Q 3794 431 3386 176 
Q 2978 -78 2316 -78 
Q 1672 -78 1262 144 
Q 853 366 678 786 
Q 503 1206 503 1934 
L 503 4581 
L 1109 4581 
L 1109 1938 
Q 1109 1341 1220 1058 
Q 1331 775 1601 622 
Q 1872 469 2263 469 
Q 2931 469 3215 772 
Q 3500 1075 3500 1938 
L 3500 4581 
z
" transform="scale(0.015625)"/>
      </defs>
      <use xlink:href="#ArialMT-55"/>
      <use xlink:href="#ArialMT-6e" x="72.216797"/>
      <use xlink:href="#ArialMT-6d" x="127.832031"/>
      <use xlink:href="#ArialMT-61" x="211.132812"/>
      <use xlink:href="#ArialMT-73" x="266.748047"/>
      <use xlink:href="#ArialMT-6b" x="316.748047"/>
      <use xlink:href="#ArialMT-65" x="366.748047"/>
      <use xlink:href="#ArialMT-64" x="422.363281"/>
      <use xlink:href="#ArialMT-20" x="477.978516"/>
      <use xlink:href="#ArialMT-41" x="500.261719"/>
      <use xlink:href="#ArialMT-63" x="566.960938"/>
      <use xlink:href="#ArialMT-72" x="616.960938"/>
      <use xlink:href="#ArialMT-6f" x="650.261719"/>
      <use xlink:href="#ArialMT-6e" x="705.876953"/>
      <use xlink:href="#ArialMT-79" x="761.492188"/>
      <use xlink:href="#ArialMT-6d" x="811.492188"/>
      <use xlink:href="#ArialMT-20" x="894.792969"/>
      <use xlink:href="#ArialMT-4d" x="922.576172"/>
      <use xlink:href="#ArialMT-65" x="1005.876953"/>
      <use xlink:href="#ArialMT-61" x="1061.492188"/>
      <use xlink:href="#ArialMT-6e" x="1117.107422"/>
     </g>
    </g>
    <g id="line2d_23">
     <path d="M 339.46875 162.730625 
L 359.46875 162.730625 
L 379.46875 162.730625 
" style="fill: none; stroke: #ee854a; stroke-width: 2; stroke-linecap: round"/>
    </g>
    <g id="text_21">
     <!-- Unmasked Toxicity Mean -->
     <g style="fill: #262626" transform="translate(395.46875 169.730625) scale(0.2 -0.2)">
      <use xlink:href="#ArialMT-55"/>
      <use xlink:href="#ArialMT-6e" x="72.216797"/>
      <use xlink:href="#ArialMT-6d" x="127.832031"/>
      <use xlink:href="#ArialMT-61" x="211.132812"/>
      <use xlink:href="#ArialMT-73" x="266.748047"/>
      <use xlink:href="#ArialMT-6b" x="316.748047"/>
      <use xlink:href="#ArialMT-65" x="366.748047"/>
      <use xlink:href="#ArialMT-64" x="422.363281"/>
      <use xlink:href="#ArialMT-20" x="477.978516"/>
      <use xlink:href="#ArialMT-54" x="504.011719"/>
      <use xlink:href="#ArialMT-6f" x="553.970703"/>
      <use xlink:href="#ArialMT-78" x="609.585938"/>
      <use xlink:href="#ArialMT-69" x="659.585938"/>
      <use xlink:href="#ArialMT-63" x="681.802734"/>
      <use xlink:href="#ArialMT-69" x="731.802734"/>
      <use xlink:href="#ArialMT-74" x="754.019531"/>
      <use xlink:href="#ArialMT-79" x="781.802734"/>
      <use xlink:href="#ArialMT-20" x="831.802734"/>
      <use xlink:href="#ArialMT-4d" x="859.585938"/>
      <use xlink:href="#ArialMT-65" x="942.886719"/>
      <use xlink:href="#ArialMT-61" x="998.501953"/>
      <use xlink:href="#ArialMT-6e" x="1054.117188"/>
     </g>
    </g>
   </g>
  </g>
 </g>
 <defs>
  <clipPath id="peee3cbf530">
   <rect x="90" y="51.84" width="558" height="332.64"/>
  </clipPath>
 </defs>
</svg>
